<?xml version="1.0" encoding="utf-8"?>
<!-- Generator: Adobe Illustrator 21.0.0, SVG Export Plug-In . SVG Version: 6.00 Build 0)  -->
<svg version="1.1" id="Layer_1" xmlns="http://www.w3.org/2000/svg" xmlns:xlink="http://www.w3.org/1999/xlink" x="0px" y="0px"
	 viewBox="0 0 813.7 1185.4" style="enable-background:new 0 0 813.7 1185.4;" xml:space="preserve">
<g>
	<path d="M805.9,31.5C693,12.6,550.9,2.2,406,2.2C261,2.2,118.9,12.6,6,31.5l-5.9,1v48.3l4.1,1.9c9.6,4.5,19.6,7.4,29.9,8.4
		C33.2,203.3,38.9,301.9,51,384.2c12.3,84.3,31.7,154.1,57.6,207.4l0.2,0.4c21.6,37.6,51.1,72,87.5,102.2l0.3,0.2
		c15.1,11.2,22.1,28.8,21.3,54l0,0.2l0,0.2c2.4,122.1,4.4,211.6,5.7,268.2c0.1,6,0.9,9.3,5.3,14c5.4,5.9,19.7,21.1,34.7,34.6
		c20.6,18.5,30.7,22.8,36.5,23.6v44h-17v46.7l1.7,0.4c0,0,0,0,0,0l0,0c0,0,0,0,0,0c3.5,0.8,7.2,1.4,10.8,2
		c5.8,0.9,11.3,1.5,16.9,1.8c3.3,0.2,6.5,0.3,9.8,0.3c4.9,0,9.8-0.2,14.7-0.6c7.9-0.6,15.8-1.8,23.7-3.5c0,0,0,0,0,0l1.7-0.4v-46.7
		h-17v-43.8h120.6v43.8h-17v46.7l1.7,0.4c0,0,0,0,0,0l0,0c0,0,0,0,0.1,0c3.5,0.8,7.2,1.4,10.8,2c5.8,0.9,11.3,1.5,16.9,1.8
		c3.3,0.2,6.5,0.3,9.8,0.3c4.9,0,9.8-0.2,14.7-0.6c7.9-0.6,15.9-1.8,23.8-3.5v0l1.7-0.4v-46.7h-17v-43.9c5.7-0.7,15.8-4.9,36.7-23.6
		c15-13.4,29.3-28.6,34.7-34.5c4.4-4.7,5.2-8,5.3-14c1.3-56.6,3.3-146.1,5.7-268.2l0-0.2l0-0.2c-0.8-25.1,6.2-42.7,21.3-54l0.3-0.2
		C651.7,664.4,681.1,630,703,592l0.2-0.4c25.9-53.3,45.3-123,57.6-207.3c12.1-82.3,17.7-180.9,16.9-293.1
		c10.2-1.1,20.2-3.9,29.9-8.4l4.1-1.9V32.5L805.9,31.5z M797.6,44.5v27C686.1,53.4,547.4,43.4,405.9,43.4
		c-141.5,0-280.1,9.9-391.6,28V44.5c111.2-18.2,250-28.2,391.7-28.2S686.4,26.3,797.6,44.5z M586.9,56c-0.6,31.9-1,58.9-1.3,85
		c-0.9,65.1-1.6,116.6-5.3,196.9c-0.9,19.3-3.7,30.5-9.5,37.4c-5.9,7.1-15.7,10.2-31.8,10.2c-11.5,0-24.6-5.2-39.7-11.2
		c-23.5-9.3-52.6-21-93.4-21.2c-40.7,0.2-69.9,11.8-93.4,21.2c-15.1,6-28.1,11.2-39.7,11.2c-30.7,0-39.6-10.2-41.4-47.6
		c-3.7-80.3-4.4-131.8-5.3-196.9c-0.4-26.1-0.7-53.2-1.3-85c58.5-3.6,119.5-5.5,181.1-5.5C467.4,50.5,528.4,52.4,586.9,56z
		 M304.4,1089.3h1.1v43.8h-1.1V1089.3z M293.9,1137.3v40.2c-1.1-0.2-2.2-0.4-3.3-0.6c-0.2,0-0.4-0.1-0.6-0.1
		c-0.9-0.2-1.7-0.3-2.6-0.5v-39H293.9z M358.3,1137.3v39c-0.3,0.1-0.5,0.1-0.8,0.2c-1.5,0.3-3,0.6-4.5,0.8c-0.2,0-0.4,0.1-0.7,0.1
		c-5.3,0.9-10.7,1.6-16,2c-1,0.1-2.1,0.1-3.1,0.2c-0.5,0-0.9,0.1-1.4,0.1c-5.6,0.3-11.3,0.3-16.9,0v-42.5h30.7H358.3z M341.3,1133.1
		h-21.1v-43.8h21.1V1133.1z M470.4,1089.3h1v43.8h-1V1089.3z M459.9,1137.3v40.2c-1.1-0.2-2.2-0.4-3.3-0.6c-0.2,0-0.4-0.1-0.5-0.1
		c-0.9-0.2-1.7-0.3-2.6-0.5v-39H459.9z M524.3,1137.3v39c-0.3,0.1-0.5,0.1-0.8,0.2c-1.5,0.3-3,0.6-4.5,0.9c-0.2,0-0.4,0.1-0.6,0.1
		c-5.4,0.9-10.7,1.6-16.1,2c-1,0.1-2.1,0.1-3.1,0.2c-0.5,0-1,0.1-1.5,0.1c-5.6,0.3-11.2,0.3-16.9,0v-42.5h30.7H524.3z M486,1133.1
		v-43.8h21.2v43.8H486z M509.4,1075.1h-166h-40.9c-6.3,0-28.3-16.8-57.8-48c29.4,5,81.5,7.5,161.1,7.6c80-0.2,132.2-2.6,161.5-7.7
		C537.8,1058.3,515.7,1075.1,509.4,1075.1z M606.6,683.2c-18.8,14-27.8,36.1-26.9,65.5c-2.4,122-4.4,211.4-5.7,268
		c-0.1,3.1-0.1,3.1-1.5,4.6c-0.1,0.1-0.2,0.2-0.3,0.3c-27.5,5.7-81,8.5-166.4,8.7c-85-0.1-138.3-2.8-166-8.5
		c-0.1-0.2-0.3-0.3-0.4-0.5c-1.4-1.5-1.4-1.5-1.5-4.6c-1.3-56.6-3.3-146-5.7-268c0.8-29.5-8.2-51.6-26.9-65.5
		c-24.9-20.7-46.3-43.3-64.1-67.6c87.9,12.1,176.3,18.1,264.7,18.1c88.5,0,177-6.1,264.9-18.1C652.8,640.1,631.4,662.7,606.6,683.2z
		 M770.5,77.4l-7,0.2l0.1,7c1.1,114.2-4.5,214.4-16.7,297.6c-12.1,82.8-31,151.1-56.3,203c-5.1,8.8-10.6,17.3-16.5,25.7
		c-178,24.8-358.4,24.8-536.5,0c-5.9-8.4-11.4-16.9-16.4-25.7c-25.2-52-44.1-120.3-56.3-203C52.8,298.9,47.2,198.8,48.3,84.6l0.1-7
		l-7-0.2c-3.9-0.1-7.8-0.5-11.7-1.2c57.1-8.7,120.7-15.4,188-19.7c0.6,31.7,1,58.6,1.3,84.7c0.9,65.2,1.6,116.7,5.3,197.1
		c1,21,4.4,33.4,11.2,41.6c7.4,8.8,18.9,12.7,37.2,12.7c12.9,0,26.5-5.4,42.3-11.7c22.9-9.1,51.4-20.5,90.8-20.7
		c39.4,0.2,67.9,11.6,90.8,20.7c15.8,6.3,29.4,11.7,42.3,11.7c18.4,0,29.8-3.9,37.2-12.7c6.9-8.2,10.2-20.7,11.2-41.6
		c3.7-80.4,4.4-131.9,5.3-197.1c0.4-26.1,0.7-53,1.3-84.7c67.3,4.3,131.1,11,188.2,19.7C778.3,76.9,774.5,77.3,770.5,77.4z"/>
	<path d="M355.7,178.4c0.1-0.3,0.1-0.6,0.1-0.9c0-3.2,0-6.4,0-9.6c0-6.9,0-13.9,0-20.8c0-0.3,0-0.6-0.1-0.9c-0.3-1-1.2-1.7-2.3-1.7
		c-2,0-4,0-6,0c-2.3,0-4.7,0-7.1,0c-1,0-1.8-0.6-2.1-1.6c-0.1-0.4-0.1-0.7-0.1-1c0-4.2,0-8.5,0-12.7c0-1.3-0.5-2-1.8-2.5
		c-10.6,0-21.2,0-31.9,0c-0.2,0.1-0.3,0.1-0.5,0.2c-0.6,0.3-1,0.7-1.2,1.3c0,0.2-0.1,0.3-0.2,0.5c0,4.7,0,9.4,0,14.1
		c0.1,0,0.2,0.1,0.2,0.2c0.5,1.2,1.1,1.6,2.4,1.6c2.2,0,4.3,0,6.5,0c2.1,0,4.2,0,6.3,0c0.4,0,0.8,0,1.2,0.2c0.8,0.5,1.2,1.2,1.2,2.1
		c0,4.3,0,8.5,0,12.8c0,0.1,0,0.3,0,0.5c0,0.9,0.6,1.7,1.5,2c0.3,0.1,0.6,0.1,0.9,0.1c4.2,0,8.5,0,12.8,0c0.3,0,0.6,0,0.9,0.1
		c1,0.2,1.6,1,1.6,2c0,1.6,0,3.2,0,4.8c0,2.8,0,5.7,0,8.6c0,0.9,0.5,1.5,1.2,1.9c0.4,0.2,0.8,0.3,1.2,0.3c4.3,0,8.7,0,13,0
		c0.1,0,0.2,0,0.3,0C354.7,179.9,355.4,179.3,355.7,178.4z"/>
	<path d="M351.6,139.3c4.1,0,8.1,0,12.2,0c0.6,0,0.5-0.1,0.5,0.5c0,3.6,0,7.2,0,10.8c0,8.9,0,17.9,0,26.8c0,0.3-0.1,0.6,0,0.9
		c0.2,1,1,1.7,2.1,1.7c1.3,0,2.5,0,3.8,0c1.7,0,3.4,0,5.1,0c1.3,0,2.2-0.9,2.2-2.2c0-0.2,0-0.5,0-0.7c0-12.4,0-24.9,0-37.3
		c0-0.6-0.1-0.5,0.5-0.5c4.1,0,8.1,0,12.2,0c1.3,0,2.3-0.9,2.3-2.3c0-2.7,0-5.3,0-8c0-1.2-0.6-1.9-1.8-2.3c-13.3,0-26.5,0-39.6,0.1
		c-0.1,0.1-0.1,0.1-0.1,0.1c-1.2,0.3-1.8,1.1-1.8,2.3c0,1.3,0,2.7,0,4c0,1.3,0,2.6,0,3.9c0,0.7,0.3,1.2,0.8,1.7
		C350.5,139.2,351,139.3,351.6,139.3z"/>
	<path d="M454.6,176.3c3.7,2.5,7.9,3.7,12.3,4c1,0,1.9,0,2.9-0.1c0.1-0.1,0.1-0.1,0.2-0.1c0.7-0.1,1.3-0.1,2-0.2
		c2-0.3,4-0.8,5.8-1.7c2.7-1.4,4.6-3.4,5.6-6.3c0.6-2,0.8-4,0.5-6.1c-0.3-2.9-1.7-5.1-4.3-6.6c-1.3-0.7-2.7-1.2-4.2-1.5
		c-1.4-0.3-2.7-0.5-4.1-0.8c-0.7-0.1-1.5-0.3-2.1-0.7c-1-0.6-1.1-2.1-0.1-2.8c0.4-0.2,0.8-0.4,1.3-0.5c1.3-0.3,2.7-0.2,4,0.1
		c0.9,0.2,1.9,0.5,2.8,0.9c1.2,0.4,2.4,0.1,2.9-0.8c0.7-1.3,1.4-2.6,2.1-3.9c0.5-1.1,0-2.5-1.1-3c-2.9-1.2-5.9-2-9-2.2
		c-2.2-0.1-4.4,0-6.5,0.5c-1.9,0.4-3.7,0.9-5.3,1.9c-2,1.1-3.5,2.7-4.3,4.8c-0.9,2.5-1,5-0.4,7.5c0.6,2.4,2.1,4.2,4.3,5.5
		c1.3,0.8,2.7,1.3,4.1,1.7c1.5,0.4,2.9,0.8,4.4,1.2c0.6,0.2,1.2,0.4,1.7,0.7c0.4,0.2,0.8,0.5,1,0.9c0.2,0.5,0.2,0.9-0.2,1.3
		c-0.3,0.3-0.6,0.5-1,0.7c-0.7,0.4-1.5,0.5-2.3,0.5c-1.7,0.1-3.3-0.3-4.8-0.8c-1.3-0.4-2.6-1-3.8-1.7c-1.1-0.6-2.4-0.3-3,0.8
		c-0.7,1.3-1.4,2.6-2.1,3.9C453.3,174.5,453.6,175.6,454.6,176.3z"/>
	<path d="M487.4,156c0.6,0,1.3,0,2,0c0.6,0,0.5-0.1,0.5,0.5c0,4.8,0,9.6,0,14.4c0,0.5,0,1,0.1,1.5c0.3,2.9,1.8,5,4.4,6.3
		c1.9,0.9,3.9,1.3,5.9,1.4c2.2,0.1,4.4,0,6.6-0.4c0.4-0.1,0.8-0.2,1.2-0.4c0.6-0.4,1-0.9,1-1.7c0-1.4,0-2.9,0-4.3
		c0-0.9-0.5-1.5-1.3-1.9c-0.4-0.2-0.9-0.3-1.3-0.3c-0.6,0-1.1-0.2-1.6-0.4c-1.2-0.6-1.9-1.5-1.9-2.8c0-4,0-7.9,0-11.9
		c0-0.4,0-0.4,0.4-0.4c0.1,0,0.3,0,0.4,0c1.1,0,2.1,0,3.2,0c0.8,0,1.4-0.3,1.9-1c0.1-0.1,0-0.3,0.2-0.4c0-2.5,0-5,0.1-7.4
		c-0.1-0.2-0.2-0.5-0.4-0.7c-0.5-0.6-1.2-0.8-1.9-0.8c-1,0-2,0-3,0c-0.1,0-0.2,0-0.3,0c-0.1,0-0.2-0.1-0.2-0.2c0-0.1,0-0.3,0-0.4
		c0-2.3,0-4.5,0-6.7c0-0.1,0-0.3,0-0.5c-0.1-1.2-1-2-2.2-2c-0.5,0-1,0-1.5,0c-2.4,0-4.8,0-7.2,0c-0.6,0-1.1,0.2-1.6,0.6
		c-0.5,0.4-0.7,1-0.7,1.7c0,2.3,0,4.6,0,6.9c0,0.7,0.1,0.6-0.6,0.6c-0.8,0-1.5,0-2.2,0c-1.4,0.1-2.3,1-2.3,2.3c0,2.1,0,4.1,0,6.2
		c0,0.2,0,0.4,0.1,0.6C485.5,155.4,486.3,156,487.4,156z"/>
	<path d="M305.1,180c3,0,5.9,0,8.9,0c1.4,0,2.8,0,4.2,0c1.2,0.1,2.2-1,2.2-2.2c0-4.4,0-8.7,0-13.1c0-0.3,0-0.5-0.1-0.7
		c-0.3-1-1.1-1.7-2.3-1.7c-4.4,0-8.7,0-13.1,0c-1,0-1.7,0.5-2.1,1.4c0,0.2,0,0.3-0.2,0.4c0,4.7,0,9.4,0,14.2c0.1,0,0.2,0.1,0.2,0.2
		C303.2,179.5,303.9,180,305.1,180z"/>
	<path d="M419.9,178.9c1.5,0.7,3.1,1.1,4.7,1.1c2.1,0.1,4.2,0.1,6.2-0.4c1.4-0.3,2.7-0.8,3.9-1.7c0.8-0.5,1.4-1.2,1.7-2.1
		c0,0.7-0.1,1.3,0,2.1c0,1.1,0.7,2,1.7,2.2c0.3,0,0.5,0,0.8,0c3.1,0,6.1,0,9.2,0c1.3,0,2.4-1,2.4-2.4c0-2.7,0-5.3,0-7.9
		c0-7.4,0-14.7,0-22c0-0.1,0-0.3,0-0.5c-0.1-0.9-0.5-1.5-1.3-1.9c-0.3-0.2-0.7-0.2-1.1-0.2c-3.1,0-6.2,0-9.3,0c-0.1,0-0.3,0-0.4,0
		c-0.9,0-1.7,0.7-1.9,1.6c-0.1,0.3-0.1,0.6-0.1,0.9c0,5.2,0,10.5,0,15.7c0,0.3,0,0.6,0,0.9c-0.1,1.8-0.9,3.1-2.5,3.9
		c-1.6,0.8-3.2,0.6-4.6-0.4c-1.2-1-1.8-2.2-1.8-3.8c0-5.4,0-10.8,0-16.2c0-0.2,0-0.4,0-0.6c-0.1-0.9-0.7-1.7-1.6-1.9
		c-0.3-0.1-0.6-0.1-0.9-0.1c-1.4,0-2.8,0-4.2,0c-1.8,0-3.5,0-5.2,0c-1.3,0-2.3,1-2.3,2.3c0,6.9,0,13.9,0,20.8c0,0.5,0,1,0.1,1.5
		C414,174,416.1,177,419.9,178.9z"/>
	<path d="M402.4,145c-1.5,0.5-2.9,1.1-3.6,2.6c0-1.4-1.1-2.5-2.5-2.4c-1.5,0.1-3,0-4.5,0c-1.4,0-2.7,0-4.1,0c-1,0-1.8,0.6-2.1,1.5
		c-0.1,0.4-0.1,0.7-0.1,1c0,6.2,0,12.4,0,18.6c0,3.8,0,7.5,0,11.3c0,1.6,1.2,2.4,2.4,2.4c1.4,0,2.8,0,4.2,0c1.5,0,2.9,0,4.4,0
		c0.7,0,1.2-0.3,1.7-0.8s0.6-1.1,0.6-1.7c0-5,0-10.1,0-15.1c0-0.4,0-0.9,0.1-1.4c0.6-3,3.1-5,6.1-5c0.8,0,1.5,0,2.3,0
		c0.9,0,1.5-0.4,1.9-1.2c0.2-0.4,0.2-0.8,0.2-1.2c0-2.3,0-4.5,0-6.8v-0.1c0-1.3-0.9-2.2-2.2-2.2c-0.4,0-0.9,0-1.4,0
		C404.6,144.5,403.5,144.7,402.4,145z"/>
	<polygon points="312.9,257.1 306.5,234.4 303.6,234.4 297.7,257.1 292.1,234.4 288.5,234.4 295.6,262.4 299.2,262.4 304.9,240.7 
		311,262.4 314.5,262.4 321.2,234.4 318.1,234.4 	"/>
	<path d="M341.4,262.4v-12.6c0-1.8-0.2-3-0.3-3.8c-0.1-0.8-0.5-1.5-1-2.3c-0.5-0.8-1.3-1.4-2.2-1.9c-0.9-0.5-2-0.7-3.2-0.7
		c-2.7,0-4.8,1.5-6.3,4.4v-11.1h-3.2v28h3.2v-11.2c0-2.2,0.6-4,1.7-5.4c1.2-1.3,2.5-2,4.2-2c0.9,0,1.7,0.3,2.4,0.8s1.1,1.2,1.3,1.9
		c0.2,0.7,0.3,1.8,0.3,3.3v12.6H341.4z"/>
	<rect x="347.7" y="234.4" width="3.5" height="3.6"/>
	<rect x="347.9" y="241.7" width="3.2" height="20.7"/>
	<path d="M357.9,256.6c0,4.2,2,6.3,6,6.3c0.9,0,1.9-0.1,3-0.2v-2.5c-0.9,0.1-1.7,0.2-2.6,0.1c-2.2,0-3.3-1.1-3.3-3.2v-13h4.6v-2.5
		H361v-5.5l-3,0.3l-0.1,5.2h-3.7v2.5h3.7V256.6z"/>
	<path d="M383.2,261.2c1.6-1.2,2.7-2.6,3.2-4.4l-3-0.6c-1.1,2.7-2.9,4.1-5.6,4c-1.5,0-2.9-0.5-4.2-1.6s-2-3.2-2-6.3h15
		c0-3.7-0.9-6.5-2.5-8.4c-1.6-1.9-3.8-2.8-6.5-2.8c-2.7,0-5,1-6.8,3s-2.7,4.7-2.7,8c0,3.2,0.9,5.8,2.6,7.8c1.8,2,4.1,3,6.9,3
		C379.7,262.9,381.6,262.4,383.2,261.2z M373.6,245.2c1.1-1.1,2.5-1.7,4.1-1.7c1.2,0,2.3,0.4,3.1,1c0.8,0.6,1.4,1.4,1.8,2.3
		c0.4,0.9,0.6,1.8,0.6,3h-11.5C371.9,247.9,372.5,246.3,373.6,245.2z"/>
	<path d="M405.3,239.7c0,1.7,0.9,3.8,2.7,6.4c-2.4,0.8-4.2,1.9-5.4,3.5c-1.2,1.6-1.8,3.3-1.8,5.1c0,2.3,0.9,4.3,2.6,5.9
		c1.7,1.6,4,2.4,6.8,2.4s5.3-0.9,7.5-2.8c1.2,1.3,2.2,2,2.8,2.2c0.6,0.2,1.2,0.3,1.8,0.3c0.7,0,1.8-0.1,3-0.3v-3
		c-1.2,0.2-2.1,0.2-2.6,0.3c-1.1,0-2.1-0.4-3-1.4c2.6-3,4.3-6.5,5.1-10.5l-3-0.6c-0.6,3.6-1.9,6.6-3.8,9l-5.9-9
		c3.9-1.9,5.9-4.3,5.9-7.3c0-1.9-0.6-3.3-1.8-4.4c-1.2-1.1-2.8-1.6-4.7-1.6c-1.9,0-3.4,0.5-4.5,1.7
		C405.9,236.7,405.3,238.1,405.3,239.7z M416,258.1c-1.5,1.5-3.4,2.2-5.5,2.2c-1.7,0-3.1-0.5-4.4-1.4c-1.3-1-1.9-2.4-1.9-4.4
		c0-1.4,0.4-2.6,1.1-3.6s2.1-1.9,4-2.7L416,258.1z M409.3,237.4c0.6-0.6,1.4-0.9,2.4-0.9c1.1,0,2,0.4,2.7,1.1s1,1.5,1,2.5
		c0,0.6-0.2,1.4-0.7,2.1c-0.5,0.7-1.8,1.7-4,2.9c-1.6-2.6-2.5-4.4-2.4-5.6C408.3,238.7,408.7,238,409.3,237.4z"/>
	<path d="M441.4,244.2c-1.6,2-2.4,4.7-2.4,7.8c0,3,0.7,5.6,2.2,7.7c1.5,2.1,3.6,3.2,6.5,3.2c2.1,0,3.9-0.6,5.3-1.9s2.3-3.1,2.7-5.4
		l-2.9-0.5c-0.7,3.5-2.4,5.2-5.1,5.3c-1.7,0-3.1-0.7-4-2.2c-0.9-1.5-1.4-3.5-1.4-6.2c0-2.4,0.4-4.4,1.4-5.9s2.3-2.3,4.1-2.3
		c2.8,0,4.5,1.7,5,5.1l2.9-0.6c-0.3-2.1-1.1-3.9-2.5-5.2c-1.3-1.3-3.1-2-5.4-2C445.1,241.1,443,242.1,441.4,244.2z"/>
	<path d="M467.8,241.1c-2.7,0-4.9,1-6.7,3c-1.8,2-2.7,4.6-2.7,7.9c0,3.1,0.8,5.7,2.4,7.8c1.6,2.1,3.9,3.2,6.7,3.2s5.1-1.1,6.9-3.1
		c1.8-2,2.7-4.7,2.7-7.9c0-3.1-0.9-5.7-2.5-7.8C472.9,242.1,470.7,241.1,467.8,241.1z M471.9,258.3c-1.1,1.3-2.5,2-4.1,2
		c-1.7,0-3-0.6-4.1-1.8c-1.1-1.3-1.7-3.4-1.7-6.4c0-2.8,0.6-4.9,1.7-6.2c1.1-1.3,2.5-2,4.1-2c1.6,0,2.9,0.6,4.1,1.9
		c1.1,1.2,1.7,3.3,1.7,6.2C473.6,254.8,473,256.9,471.9,258.3z"/>
	<rect x="481.9" y="234.4" width="3.2" height="28"/>
	<path d="M499.3,241.1c-2.7,0-4.9,1-6.7,3c-1.8,2-2.7,4.6-2.7,7.9c0,3.1,0.8,5.7,2.4,7.8c1.6,2.1,3.9,3.2,6.7,3.2s5.1-1.1,6.9-3.1
		c1.8-2,2.7-4.7,2.7-7.9c0-3.1-0.9-5.7-2.5-7.8C504.4,242.1,502.2,241.1,499.3,241.1z M503.3,258.3c-1.1,1.3-2.5,2-4.1,2
		c-1.6,0-3-0.6-4.1-1.8c-1.1-1.3-1.7-3.4-1.7-6.4c0-2.8,0.6-4.9,1.7-6.2c1.1-1.3,2.5-2,4.1-2c1.6,0,2.9,0.6,4.1,1.9
		c1.1,1.2,1.7,3.3,1.7,6.2C505,254.8,504.4,256.9,503.3,258.3z"/>
	<path d="M516.6,251.5c0.1-2.1,0.7-3.9,1.9-5.2c1.1-1.3,2.6-2,4.4-2h0.7v-3.1c-0.5-0.1-1-0.1-1.3-0.1c-1.1,0-2.1,0.3-3.1,1
		c-1,0.6-2,2.1-3,4.4v-4.8h-2.8v20.7h3.2V251.5z"/>
	<path d="M348.5,310.7c-2.2,0-3.3-1.1-3.3-3.2v-13h4.6V292h-4.6v-5.5l-3,0.3l-0.1,5.2h-3.7v2.5h3.7V307c0,4.2,2,6.3,6,6.3
		c0.9,0,1.9-0.1,3-0.2v-2.5C350.2,310.7,349.4,310.8,348.5,310.7z"/>
	<path d="M367.6,291.9v11.7c0,1.3-0.2,2.5-0.8,3.6c-0.6,1.1-1.3,1.9-2.1,2.5c-0.8,0.6-1.8,0.9-2.8,0.9s-1.9-0.4-2.8-1.2
		c-0.9-0.7-1.3-2.2-1.3-4.2V292h-3.2v13.2c0,2.6,0.6,4.6,1.8,6c1.2,1.4,2.9,2.1,5,2.1c2.9,0,5.1-1.5,6.6-4.5v4h2.8v-20.9H367.6z"/>
	<path d="M393,295.5c-0.4-1-1.1-1.9-2.2-2.7c-1-0.8-2.4-1.2-3.9-1.2c-2.6,0-4.8,1.5-6.5,4.4v-3.8h-3v20.7h3.2v-11.4
		c0-2.2,0.6-3.9,1.7-5.2c1.1-1.3,2.5-2,4.1-2c1.2,0,2.1,0.5,3,1.2c0.9,0.7,1.3,2.1,1.3,4v13.3h2.9v-11.9
		C393.6,298.3,393.4,296.5,393,295.5z"/>
	<path d="M415.7,300c0-3.1-0.6-5.3-1.8-6.6s-3.2-1.9-6.1-1.9c-5.3,0-8.4,1.9-9.1,5.7l3,0.5c0.5-2.5,2.4-3.7,5.7-3.7
		c1.3,0,2.4,0.2,3.2,0.7c0.8,0.5,1.3,1.1,1.6,1.8c0.3,0.8,0.4,2,0.4,3.6c-1.2-0.1-2.1-0.1-2.7-0.1c-4.3,0-7.3,0.6-9.1,2
		c-1.8,1.4-2.7,3.1-2.7,5.2c0,1.7,0.7,3.2,1.9,4.4c1.3,1.2,3.1,1.8,5.4,1.8c3.5,0,5.9-1.4,7.3-4.3c0.2,1.8,0.3,3,0.4,3.7h3.2
		c-0.3-1.3-0.4-2.6-0.6-4V300z M411,308.9c-1.3,1.4-2.9,2.1-4.8,2.1c-1.4,0-2.5-0.4-3.3-1.1c-0.7-0.7-1.1-1.6-1.1-2.6
		c0-1.6,0.7-2.9,2.1-3.7c1.4-0.9,3.4-1.3,5.9-1.3c0.7,0,1.7,0,3,0.1c0,0.5,0,1,0.1,1.5C412.9,305.8,412.2,307.5,411,308.9z"/>
	<path d="M431.6,291.5c-2.6,0-4.6,1.3-6.1,4v-10.7h-3.2v28h1.6l1-3.5c1.5,2.7,3.7,4,6.5,4c2.6,0,4.6-1,6.2-3.1
		c1.6-2,2.4-4.6,2.4-7.7c0-3.6-0.8-6.3-2.4-8.2C436,292.4,434,291.5,431.6,291.5z M435.3,308.5c-1,1.4-2.4,2.1-4,2.1
		c-1.3,0-2.5-0.4-3.7-1.4c-1.2-0.9-1.8-2.5-2-4.6h0.1v-4.7c0.2-1.7,0.8-3.1,1.9-4.2c1.1-1.1,2.3-1.6,3.7-1.6c1.7,0,3,0.8,4,2.3
		s1.5,3.6,1.5,6.3C436.8,305.1,436.3,307.1,435.3,308.5z"/>
	<rect x="444.9" y="284.8" width="3.2" height="28"/>
	<path d="M468.9,294.3c-1.6-1.9-3.8-2.8-6.5-2.8s-5,1-6.8,3c-1.8,2-2.7,4.7-2.7,8c0,3.2,0.8,5.8,2.6,7.8s4.1,3,6.9,3
		c2.1,0,4-0.5,5.6-1.7c1.6-1.2,2.7-2.6,3.2-4.4l-3-0.6c-1.1,2.7-2.9,4.1-5.6,4c-1.5,0-2.9-0.5-4.2-1.6s-2-3.2-2-6.3h15
		C471.4,299,470.5,296.2,468.9,294.3z M458.4,295.6c1.1-1.1,2.5-1.7,4.1-1.7c1.2,0,2.3,0.4,3.1,1s1.4,1.4,1.8,2.3
		c0.4,0.9,0.6,1.8,0.6,3h-11.5C456.7,298.3,457.3,296.7,458.4,295.6z"/>
</g>
</svg>
