<svg height="960" viewBox="0 0 960 960" width="960" xmlns="http://www.w3.org/2000/svg"><path d="m715 0c135.309764 0 245 109.690236 245 245v470c0 135.309764-109.690236 245-245 245h-470c-135.309764 0-245-109.690236-245-245v-470c0-135.309764 109.690236-245 245-245zm0 40h-470c-113.218374 0-205 91.781626-205 205v470c0 113.218374 91.781626 205 205 205h14v-24h-18c-97.754401 0-177-79.245599-177-177v-478c0-97.754401 79.245599-177 177-177h478c97.754401 0 177 79.245599 177 177v478c0 97.754401-79.245599 177-177 177h-19v24h15c113.218374 0 205-91.781626 205-205v-470c0-113.218374-91.781626-205-205-205zm-35 856h-401v24h401zm39-812h-478c-86.708706 0-157 70.291294-157 157v478c0 86.708706 70.291294 157 157 157h18v-85c0-22.643675 18.356325-41 41-41h359c22.643675 0 41 18.356325 41 41v85h19c86.708706 0 157-70.291294 157-157v-478c0-86.708706-70.291294-157-157-157zm-60 686h-359c-11.59798 0-21 9.40202-21 21v85h401v-85c0-11.480828-9.21304-20.809836-20.649226-20.99713zm-296 20c5.522847 0 10 4.477153 10 10v46c0 5.522847-4.477153 10-10 10h-46c-5.522847 0-10-4.477153-10-10v-46c0-5.522847 4.477153-10 10-10zm93 0c5.522847 0 10 4.477153 10 10v46c0 5.522847-4.477153 10-10 10h-46c-5.522847 0-10-4.477153-10-10v-46c0-5.522847 4.477153-10 10-10zm93 0c5.522847 0 10 4.477153 10 10v46c0 5.522847-4.477153 10-10 10h-46c-5.522847 0-10-4.477153-10-10v-46c0-5.522847 4.477153-10 10-10zm93 0c5.522847 0 10 4.477153 10 10v46c0 5.522847-4.477153 10-10 10h-46c-5.522847 0-10-4.477153-10-10v-46c0-5.522847 4.477153-10 10-10zm-454-348.5c21.262963 0 38.5 17.237037 38.5 38.5s-17.237037 38.5-38.5 38.5-38.5-17.237037-38.5-38.5 17.237037-38.5 38.5-38.5zm582 0c21.262963 0 38.5 17.237037 38.5 38.5s-17.237037 38.5-38.5 38.5-38.5-17.237037-38.5-38.5 17.237037-38.5 38.5-38.5zm-582 15c-12.978692 0-23.5 10.521308-23.5 23.5s10.521308 23.5 23.5 23.5 23.5-10.521308 23.5-23.5-10.521308-23.5-23.5-23.5zm582 0c-12.978692 0-23.5 10.521308-23.5 23.5s10.521308 23.5 23.5 23.5 23.5-10.521308 23.5-23.5-10.521308-23.5-23.5-23.5zm-479 1.5c12.150264 0 22 9.849736 22 22s-9.849736 22-22 22-22-9.849736-22-22 9.849736-22 22-22z"/></svg>