<?xml version="1.0" encoding="utf-8"?>
<svg version="1.1" xmlns="http://www.w3.org/2000/svg" x="0px" y="0px" viewBox="0 0 1000 1000" xml:space="preserve">
<g>
    <g>
        <path fill="none" stroke="#000000" stroke-width="6" stroke-miterlimit="10"
              d="M433.6,807.8h-278c-20.7,0-37.5-16.8-37.5-37.5v-665c0-20.7,16.8-37.5,37.5-37.5h278c20.7,0,37.5,16.8,37.5,37.5v665C471.1,791,454.4,807.8,433.6,807.8z"/>
        <path fill="none" stroke="#000000" stroke-width="6" stroke-miterlimit="10"
              d="M433.6,820.3h-278c-27.6,0-50-22.4-50-50v-665c0-27.6,22.4-50,50-50h278c27.6,0,50,22.4,50,50v665C483.6,797.9,461.3,820.3,433.6,820.3z"/>
        <circle fill="none" stroke="#000000" stroke-width="6" stroke-miterlimit="10" cx="294.6" cy="437.8" r="125"/>
    </g>
    <path fill="none" stroke="#000000" stroke-width="6" stroke-miterlimit="10"
          d="M781.3,732.1c78.6,0,113.1-52.1,113.1-92.3c0,0,0-101.5,0-101.5c0-40.1-34.5-92.3-113.1-92.3h-68.8c-78.6,0-113.1,52.1-113.1,92.3c0,0,0,101.5,0,101.5c0,40.1,34.5,92.3,113.1,92.3H781.3z"/>
    <path fill="none" stroke="#000000" stroke-width="6" stroke-miterlimit="10"
          d="M294.6,820.4c0,69,56,125.6,125,125.6h202c69,0,125-56.6,125-125.6l0.3-87.7"/>
</g>
</svg>
