<?xml version="1.0" encoding="UTF-8"?>
<svg version="1.1" viewBox="0 0 1e3 1e3" xml:space="preserve" xmlns="http://www.w3.org/2000/svg">
<style type="text/css">
    #tool {
      animation: move 8s infinite;
    }

    @keyframes move {
      0%, 10%, 90%, 100% {
        transform: translateX(0px);
      }
      15%, 85% {
        transform: translateX(-113px);
      }
    }
</style>
<g fill="none" stroke="#000" stroke-miterlimit="10" stroke-width="6">
    <path d="m433.6 807.8h-278c-20.7 0-37.5-16.8-37.5-37.5v-665c0-20.7 16.8-37.5 37.5-37.5h278c20.7 0 37.5 16.8 37.5 37.5v665c0 20.7-16.7 37.5-37.5 37.5z"/>
    <path d="m433.6 820.3h-278c-27.6 0-50-22.4-50-50v-665c0-27.6 22.4-50 50-50h278c27.6 0 50 22.4 50 50v665c0 27.6-22.3 50-50 50z"/>
    <circle cx="294.6" cy="437.8" r="125"/>
    <path d="m781.3 732.1c78.6 0 113.1-52.1 113.1-92.3v-101.5c0-40.1-34.5-92.3-113.1-92.3h-68.8c-78.6 0-113.1 52.1-113.1 92.3v101.5c0 40.1 34.5 92.3 113.1 92.3h68.8z"/>
    <path d="m294.6 820.4c0 69 56 125.6 125 125.6h202c69 0 125-56.6 125-125.6l0.3-87.7"/>
</g>
    <g id="tool">
        <g transform="translate(-12.88 -67)" fill="none" stroke="#000" stroke-width="10">
            <rect x="700.73" y="220.19" width="255" height="83" rx="40" ry="40"/>
            <path d="m609.28 261.69h90"/>
        </g>
    </g>
</svg>
