<?xml version="1.0" encoding="utf-8"?>
<!-- Generator: Adobe Illustrator 21.0.0, SVG Export Plug-In . SVG Version: 6.00 Build 0)  -->
<svg version="1.1" id="Layer_1" xmlns="http://www.w3.org/2000/svg" xmlns:xlink="http://www.w3.org/1999/xlink" x="0px" y="0px"
	 viewBox="0 0 813.7 1185.4" style="enable-background:new 0 0 813.7 1185.4;" xml:space="preserve">
<g>
	<g>
		<path d="M805.9,31.5C693,12.6,550.9,2.2,406,2.2C261,2.2,118.9,12.6,6,31.5l-5.9,1v48.3l4.1,1.9c9.6,4.5,19.6,7.4,29.9,8.4
			C33.2,203.3,38.9,301.9,51,384.2c12.3,84.3,31.7,154.1,57.6,207.4l0.2,0.4c21.6,37.6,51.1,72,87.5,102.2l0.3,0.2
			c15.1,11.2,22.1,28.8,21.3,54l0,0.2l0,0.2c2.4,122.1,4.4,211.6,5.7,268.2c0.1,6,0.9,9.3,5.3,14c5.4,5.9,19.7,21.1,34.7,34.6
			c20.6,18.5,30.7,22.8,36.5,23.6v44h-17v46.7l1.7,0.4c0,0,0,0,0,0l0,0c0,0,0,0,0,0c3.5,0.8,7.2,1.4,10.8,2
			c5.8,0.9,11.3,1.5,16.9,1.8c3.3,0.2,6.5,0.3,9.8,0.3c4.9,0,9.8-0.2,14.7-0.6c7.9-0.6,15.8-1.8,23.7-3.5c0,0,0,0,0,0l1.7-0.4v-46.7
			h-17v-43.8h120.6v43.8h-17v46.7l1.7,0.4c0,0,0,0,0,0l0,0c0,0,0,0,0.1,0c3.5,0.8,7.2,1.4,10.8,2c5.8,0.9,11.3,1.5,16.9,1.8
			c3.3,0.2,6.5,0.3,9.8,0.3c4.9,0,9.8-0.2,14.7-0.6c7.9-0.6,15.9-1.8,23.8-3.5v0l1.7-0.4v-46.7h-17v-43.9
			c5.7-0.7,15.8-4.9,36.7-23.6c15-13.4,29.3-28.6,34.7-34.5c4.4-4.7,5.2-8,5.3-14c1.3-56.6,3.3-146.1,5.7-268.2l0-0.2l0-0.2
			c-0.8-25.1,6.2-42.7,21.3-54l0.3-0.2C651.7,664.4,681.1,630,703,592l0.2-0.4c25.9-53.3,45.3-123,57.6-207.3
			c12.1-82.3,17.7-180.9,16.9-293.1c10.2-1.1,20.2-3.9,29.9-8.4l4.1-1.9V32.5L805.9,31.5z M797.6,44.5v27
			C686.1,53.4,547.4,43.4,405.9,43.4c-141.5,0-280.1,9.9-391.6,28V44.5c111.2-18.2,250-28.2,391.7-28.2S686.4,26.3,797.6,44.5z
			 M586.9,56c-0.6,31.9-1,58.9-1.3,85c-0.9,65.1-1.6,116.6-5.3,196.9c-0.9,19.3-3.7,30.5-9.5,37.4c-5.9,7.1-15.7,10.2-31.8,10.2
			c-11.5,0-24.6-5.2-39.7-11.2c-23.5-9.3-52.6-21-93.4-21.2c-40.7,0.2-69.9,11.8-93.4,21.2c-15.1,6-28.1,11.2-39.7,11.2
			c-30.7,0-39.6-10.2-41.4-47.6c-3.7-80.3-4.4-131.8-5.3-196.9c-0.4-26.1-0.7-53.2-1.3-85c58.5-3.6,119.5-5.5,181.1-5.5
			C467.4,50.5,528.4,52.4,586.9,56z M304.4,1089.3h1.1v43.8h-1.1V1089.3z M293.9,1137.3v40.2c-1.1-0.2-2.2-0.4-3.3-0.6
			c-0.2,0-0.4-0.1-0.6-0.1c-0.9-0.2-1.7-0.3-2.6-0.5v-39H293.9z M358.3,1137.3v39c-0.3,0.1-0.5,0.1-0.8,0.2c-1.5,0.3-3,0.6-4.5,0.8
			c-0.2,0-0.4,0.1-0.7,0.1c-5.3,0.9-10.7,1.6-16,2c-1,0.1-2.1,0.1-3.1,0.2c-0.5,0-0.9,0.1-1.4,0.1c-5.6,0.3-11.3,0.3-16.9,0v-42.5
			h30.7H358.3z M341.3,1133.1h-21.1v-43.8h21.1V1133.1z M470.4,1089.3h1v43.8h-1V1089.3z M459.9,1137.3v40.2
			c-1.1-0.2-2.2-0.4-3.3-0.6c-0.2,0-0.4-0.1-0.5-0.1c-0.9-0.2-1.7-0.3-2.6-0.5v-39H459.9z M524.3,1137.3v39
			c-0.3,0.1-0.5,0.1-0.8,0.2c-1.5,0.3-3,0.6-4.5,0.9c-0.2,0-0.4,0.1-0.6,0.1c-5.4,0.9-10.7,1.6-16.1,2c-1,0.1-2.1,0.1-3.1,0.2
			c-0.5,0-1,0.1-1.5,0.1c-5.6,0.3-11.2,0.3-16.9,0v-42.5h30.7H524.3z M486,1133.1v-43.8h21.2v43.8H486z M509.4,1075.1h-166h-40.9
			c-6.3,0-28.3-16.8-57.8-48c29.4,5,81.5,7.5,161.1,7.6c80-0.2,132.2-2.6,161.5-7.7C537.8,1058.3,515.7,1075.1,509.4,1075.1z
			 M606.6,683.2c-18.8,14-27.8,36.1-26.9,65.5c-2.4,122-4.4,211.4-5.7,268c-0.1,3.1-0.1,3.1-1.5,4.6c-0.1,0.1-0.2,0.2-0.3,0.3
			c-27.5,5.7-81,8.5-166.4,8.7c-85-0.1-138.3-2.8-166-8.5c-0.1-0.2-0.3-0.3-0.4-0.5c-1.4-1.5-1.4-1.5-1.5-4.6
			c-1.3-56.6-3.3-146-5.7-268c0.8-29.5-8.2-51.6-26.9-65.5c-24.9-20.7-46.3-43.3-64.1-67.6c87.9,12.1,176.3,18.1,264.7,18.1
			c88.5,0,177-6.1,264.9-18.1C652.8,640.1,631.4,662.7,606.6,683.2z M770.5,77.4l-7,0.2l0.1,7c1.1,114.2-4.5,214.4-16.7,297.6
			c-12.1,82.8-31,151.1-56.3,203c-5.1,8.8-10.6,17.3-16.5,25.7c-178,24.8-358.4,24.8-536.5,0c-5.9-8.4-11.4-16.9-16.4-25.7
			c-25.2-52-44.1-120.3-56.3-203C52.8,298.9,47.2,198.8,48.3,84.6l0.1-7l-7-0.2c-3.9-0.1-7.8-0.5-11.7-1.2
			c57.1-8.7,120.7-15.4,188-19.7c0.6,31.7,1,58.6,1.3,84.7c0.9,65.2,1.6,116.7,5.3,197.1c1,21,4.4,33.4,11.2,41.6
			c7.4,8.8,18.9,12.7,37.2,12.7c12.9,0,26.5-5.4,42.3-11.7c22.9-9.1,51.4-20.5,90.8-20.7c39.4,0.2,67.9,11.6,90.8,20.7
			c15.8,6.3,29.4,11.7,42.3,11.7c18.4,0,29.8-3.9,37.2-12.7c6.9-8.2,10.2-20.7,11.2-41.6c3.7-80.4,4.4-131.9,5.3-197.1
			c0.4-26.1,0.7-53,1.3-84.7c67.3,4.3,131.1,11,188.2,19.7C778.3,76.9,774.5,77.3,770.5,77.4z"/>
	</g>
	<g>
		<path d="M355.7,178.4c0.1-0.3,0.1-0.6,0.1-0.9c0-3.2,0-6.4,0-9.6c0-6.9,0-13.9,0-20.8c0-0.3,0-0.6-0.1-0.9c-0.3-1-1.2-1.7-2.3-1.7
			c-2,0-4,0-6,0c-2.3,0-4.7,0-7.1,0c-1,0-1.8-0.6-2.1-1.6c-0.1-0.4-0.1-0.7-0.1-1c0-4.2,0-8.5,0-12.7c0-1.3-0.5-2-1.8-2.5
			c-10.6,0-21.2,0-31.9,0c-0.2,0.1-0.3,0.1-0.5,0.2c-0.6,0.3-1,0.7-1.2,1.3c0,0.2-0.1,0.3-0.2,0.5c0,4.7,0,9.4,0,14.1
			c0.1,0,0.2,0.1,0.2,0.2c0.5,1.2,1.1,1.6,2.4,1.6c2.2,0,4.3,0,6.5,0c2.1,0,4.2,0,6.3,0c0.4,0,0.8,0,1.2,0.2
			c0.8,0.5,1.2,1.2,1.2,2.1c0,4.3,0,8.5,0,12.8c0,0.1,0,0.3,0,0.5c0,0.9,0.6,1.7,1.5,2c0.3,0.1,0.6,0.1,0.9,0.1c4.2,0,8.5,0,12.8,0
			c0.3,0,0.6,0,0.9,0.1c1,0.2,1.6,1,1.6,2c0,1.6,0,3.2,0,4.8c0,2.8,0,5.7,0,8.6c0,0.9,0.5,1.5,1.2,1.9c0.4,0.2,0.8,0.3,1.2,0.3
			c4.3,0,8.7,0,13,0c0.1,0,0.2,0,0.3,0C354.7,179.9,355.4,179.3,355.7,178.4z"/>
	</g>
	<g>
		<path d="M351.6,139.3c4.1,0,8.1,0,12.2,0c0.6,0,0.5-0.1,0.5,0.5c0,3.6,0,7.2,0,10.8c0,8.9,0,17.9,0,26.8c0,0.3-0.1,0.6,0,0.9
			c0.2,1,1,1.7,2.1,1.7c1.3,0,2.5,0,3.8,0c1.7,0,3.4,0,5.1,0c1.3,0,2.2-0.9,2.2-2.2c0-0.2,0-0.5,0-0.7c0-12.4,0-24.9,0-37.3
			c0-0.6-0.1-0.5,0.5-0.5c4.1,0,8.1,0,12.2,0c1.3,0,2.3-0.9,2.3-2.3c0-2.7,0-5.3,0-8c0-1.2-0.6-1.9-1.8-2.3c-13.3,0-26.5,0-39.6,0.1
			c-0.1,0.1-0.1,0.1-0.1,0.1c-1.2,0.3-1.8,1.1-1.8,2.3c0,1.3,0,2.7,0,4c0,1.3,0,2.6,0,3.9c0,0.7,0.3,1.2,0.8,1.7
			C350.5,139.2,351,139.3,351.6,139.3z"/>
	</g>
	<g>
		<path d="M454.6,176.3c3.7,2.5,7.9,3.7,12.3,4c1,0,1.9,0,2.9-0.1c0.1-0.1,0.1-0.1,0.2-0.1c0.7-0.1,1.3-0.1,2-0.2
			c2-0.3,4-0.8,5.8-1.7c2.7-1.4,4.6-3.4,5.6-6.3c0.6-2,0.8-4,0.5-6.1c-0.3-2.9-1.7-5.1-4.3-6.6c-1.3-0.7-2.7-1.2-4.2-1.5
			c-1.4-0.3-2.7-0.5-4.1-0.8c-0.7-0.1-1.5-0.3-2.1-0.7c-1-0.6-1.1-2.1-0.1-2.8c0.4-0.2,0.8-0.4,1.3-0.5c1.3-0.3,2.7-0.2,4,0.1
			c0.9,0.2,1.9,0.5,2.8,0.9c1.2,0.4,2.4,0.1,2.9-0.8c0.7-1.3,1.4-2.6,2.1-3.9c0.5-1.1,0-2.5-1.1-3c-2.9-1.2-5.9-2-9-2.2
			c-2.2-0.1-4.4,0-6.5,0.5c-1.9,0.4-3.7,0.9-5.3,1.9c-2,1.1-3.5,2.7-4.3,4.8c-0.9,2.5-1,5-0.4,7.5c0.6,2.4,2.1,4.2,4.3,5.5
			c1.3,0.8,2.7,1.3,4.1,1.7c1.5,0.4,2.9,0.8,4.4,1.2c0.6,0.2,1.2,0.4,1.7,0.7c0.4,0.2,0.8,0.5,1,0.9c0.2,0.5,0.2,0.9-0.2,1.3
			c-0.3,0.3-0.6,0.5-1,0.7c-0.7,0.4-1.5,0.5-2.3,0.5c-1.7,0.1-3.3-0.3-4.8-0.8c-1.3-0.4-2.6-1-3.8-1.7c-1.1-0.6-2.4-0.3-3,0.8
			c-0.7,1.3-1.4,2.6-2.1,3.9C453.3,174.5,453.6,175.6,454.6,176.3z"/>
	</g>
	<g>
		<path d="M487.4,156c0.6,0,1.3,0,2,0c0.6,0,0.5-0.1,0.5,0.5c0,4.8,0,9.6,0,14.4c0,0.5,0,1,0.1,1.5c0.3,2.9,1.8,5,4.4,6.3
			c1.9,0.9,3.9,1.3,5.9,1.4c2.2,0.1,4.4,0,6.6-0.4c0.4-0.1,0.8-0.2,1.2-0.4c0.6-0.4,1-0.9,1-1.7c0-1.4,0-2.9,0-4.3
			c0-0.9-0.5-1.5-1.3-1.9c-0.4-0.2-0.9-0.3-1.3-0.3c-0.6,0-1.1-0.2-1.6-0.4c-1.2-0.6-1.9-1.5-1.9-2.8c0-4,0-7.9,0-11.9
			c0-0.4,0-0.4,0.4-0.4c0.1,0,0.3,0,0.4,0c1.1,0,2.1,0,3.2,0c0.8,0,1.4-0.3,1.9-1c0.1-0.1,0-0.3,0.2-0.4c0-2.5,0-5,0.1-7.4
			c-0.1-0.2-0.2-0.5-0.4-0.7c-0.5-0.6-1.2-0.8-1.9-0.8c-1,0-2,0-3,0c-0.1,0-0.2,0-0.3,0c-0.1,0-0.2-0.1-0.2-0.2c0-0.1,0-0.3,0-0.4
			c0-2.3,0-4.5,0-6.7c0-0.1,0-0.3,0-0.5c-0.1-1.2-1-2-2.2-2c-0.5,0-1,0-1.5,0c-2.4,0-4.8,0-7.2,0c-0.6,0-1.1,0.2-1.6,0.6
			c-0.5,0.4-0.7,1-0.7,1.7c0,2.3,0,4.6,0,6.9c0,0.7,0.1,0.6-0.6,0.6c-0.8,0-1.5,0-2.2,0c-1.4,0.1-2.3,1-2.3,2.3c0,2.1,0,4.1,0,6.2
			c0,0.2,0,0.4,0.1,0.6C485.5,155.4,486.3,156,487.4,156z"/>
	</g>
	<g>
		<path d="M305.1,180c3,0,5.9,0,8.9,0c1.4,0,2.8,0,4.2,0c1.2,0.1,2.2-1,2.2-2.2c0-4.4,0-8.7,0-13.1c0-0.3,0-0.5-0.1-0.7
			c-0.3-1-1.1-1.7-2.3-1.7c-4.4,0-8.7,0-13.1,0c-1,0-1.7,0.5-2.1,1.4c0,0.2,0,0.3-0.2,0.4c0,4.7,0,9.4,0,14.2c0.1,0,0.2,0.1,0.2,0.2
			C303.2,179.5,303.9,180,305.1,180z"/>
	</g>
	<g>
		<path d="M419.9,178.9c1.5,0.7,3.1,1.1,4.7,1.1c2.1,0.1,4.2,0.1,6.2-0.4c1.4-0.3,2.7-0.8,3.9-1.7c0.8-0.5,1.4-1.2,1.7-2.1
			c0,0.7-0.1,1.3,0,2.1c0,1.1,0.7,2,1.7,2.2c0.3,0,0.5,0,0.8,0c3.1,0,6.1,0,9.2,0c1.3,0,2.4-1,2.4-2.4c0-2.7,0-5.3,0-7.9
			c0-7.4,0-14.7,0-22c0-0.1,0-0.3,0-0.5c-0.1-0.9-0.5-1.5-1.3-1.9c-0.3-0.2-0.7-0.2-1.1-0.2c-3.1,0-6.2,0-9.3,0c-0.1,0-0.3,0-0.4,0
			c-0.9,0-1.7,0.7-1.9,1.6c-0.1,0.3-0.1,0.6-0.1,0.9c0,5.2,0,10.5,0,15.7c0,0.3,0,0.6,0,0.9c-0.1,1.8-0.9,3.1-2.5,3.9
			c-1.6,0.8-3.2,0.6-4.6-0.4c-1.2-1-1.8-2.2-1.8-3.8c0-5.4,0-10.8,0-16.2c0-0.2,0-0.4,0-0.6c-0.1-0.9-0.7-1.7-1.6-1.9
			c-0.3-0.1-0.6-0.1-0.9-0.1c-1.4,0-2.8,0-4.2,0c-1.8,0-3.5,0-5.2,0c-1.3,0-2.3,1-2.3,2.3c0,6.9,0,13.9,0,20.8c0,0.5,0,1,0.1,1.5
			C414,174,416.1,177,419.9,178.9z"/>
	</g>
	<g>
		<path d="M402.4,145c-1.5,0.5-2.9,1.1-3.6,2.6c0-1.4-1.1-2.5-2.5-2.4c-1.5,0.1-3,0-4.5,0c-1.4,0-2.7,0-4.1,0c-1,0-1.8,0.6-2.1,1.5
			c-0.1,0.4-0.1,0.7-0.1,1c0,6.2,0,12.4,0,18.6c0,3.8,0,7.5,0,11.3c0,1.6,1.2,2.4,2.4,2.4c1.4,0,2.8,0,4.2,0c1.5,0,2.9,0,4.4,0
			c0.7,0,1.2-0.3,1.7-0.8s0.6-1.1,0.6-1.7c0-5,0-10.1,0-15.1c0-0.4,0-0.9,0.1-1.4c0.6-3,3.1-5,6.1-5c0.8,0,1.5,0,2.3,0
			c0.9,0,1.5-0.4,1.9-1.2c0.2-0.4,0.2-0.8,0.2-1.2c0-2.3,0-4.5,0-6.8v-0.1c0-1.3-0.9-2.2-2.2-2.2c-0.4,0-0.9,0-1.4,0
			C404.6,144.5,403.5,144.7,402.4,145z"/>
	</g>
</g>
<g>
	<path d="M335.3,234.4l-6.7,28H325l-6.1-21.7l-5.7,21.7h-3.6l-7.1-28h3.6l5.6,22.7l5.9-22.7h2.9l6.4,22.7l5.2-22.7H335.3z"/>
	<path d="M354.4,262.4h-3.2c-0.1-0.7-0.2-1.9-0.4-3.7c-1.4,2.9-3.8,4.3-7.3,4.3c-2.3,0-4.1-0.6-5.4-1.8c-1.2-1.2-1.9-2.7-1.9-4.4
		c0-2.1,0.9-3.8,2.7-5.2s4.8-2,9.1-2c0.6,0,1.5,0,2.7,0.1c0-1.6-0.1-2.8-0.4-3.6c-0.3-0.7-0.8-1.3-1.6-1.8c-0.8-0.4-1.9-0.7-3.2-0.7
		c-3.3,0-5.2,1.2-5.7,3.7l-3-0.5c0.7-3.8,3.8-5.7,9.1-5.7c2.9,0,4.9,0.6,6.1,1.9c1.2,1.3,1.8,3.5,1.8,6.6v8.8
		C354,259.8,354.1,261.2,354.4,262.4z M350.9,252c-1.3-0.1-2.3-0.1-3-0.1c-2.5,0-4.5,0.4-5.9,1.3c-1.4,0.8-2.1,2.1-2.1,3.7
		c0,1,0.4,1.9,1.1,2.6c0.8,0.7,1.9,1.1,3.3,1.1c1.9,0,3.5-0.7,4.8-2.1c1.3-1.4,1.9-3.1,1.9-5C350.9,253,350.9,252.6,350.9,252z"/>
	<path d="M363.6,262.4h-3.2v-20.7h2.8v4.8c1-2.3,2-3.8,3-4.4s2-1,3.1-1c0.3,0,0.8,0,1.3,0.1v3.1h-0.7c-1.8,0-3.3,0.7-4.4,2
		c-1.2,1.3-1.8,3.1-1.9,5.2V262.4z"/>
	<path d="M402,262.4h-3.1v-12.9c0-1.3-0.1-2.3-0.3-3c-0.2-0.7-0.6-1.3-1.3-1.8c-0.7-0.6-1.5-0.8-2.4-0.8c-1.2,0-2.4,0.6-3.6,1.7
		c-1.1,1.1-1.7,2.8-1.7,5.2v11.7h-3.1v-13.6c0-1.8-0.4-3.1-1.3-3.9c-0.9-0.8-1.8-1.1-2.7-1.1c-1.4,0-2.6,0.6-3.6,1.8
		s-1.5,2.7-1.5,4.5v12.4h-3.1v-20.7h2.8v4c1.5-3,3.7-4.6,6.4-4.6c1.5,0,2.8,0.5,3.8,1.5s1.7,2.1,2,3.5c1.4-3.3,3.6-5,6.5-5
		c1.4,0,2.6,0.4,3.7,1.2s1.7,1.7,2.1,2.8c0.3,1,0.5,2.5,0.5,4.4V262.4z"/>
	<path d="M442.8,241.7l-6,20.7h-2.6l-4.6-15.4l-4.2,15.4h-2.6l-6.2-20.7h3.2l4.5,15.4l4.3-15.4h2.4l4.7,15.5l4.7-15.5H442.8z"/>
	<path d="M463,262.4h-3.2v-12.6c0-1.5-0.1-2.6-0.3-3.3c-0.2-0.7-0.6-1.4-1.3-1.9c-0.7-0.5-1.5-0.8-2.4-0.8c-1.7,0-3,0.7-4.2,2
		c-1.1,1.4-1.7,3.2-1.7,5.4v11.2h-3.2v-28h3.2v11.1c1.5-2.9,3.6-4.4,6.3-4.4c1.2,0,2.3,0.2,3.2,0.7c0.9,0.5,1.7,1.1,2.2,1.9
		c0.5,0.8,0.9,1.5,1,2.3s0.3,2,0.3,3.8V262.4z"/>
	<path d="M472.8,234.4v3.6h-3.5v-3.6H472.8z M472.7,241.7v20.7h-3.2v-20.7H472.7z"/>
	<path d="M488.5,260.2v2.5c-1.1,0.1-2.1,0.2-3,0.2c-4,0-6-2.1-6-6.3v-12.5h-3.7v-2.5h3.7l0.1-5.2l3-0.3v5.5h4.6v2.5h-4.6v13
		c0,2.1,1.1,3.2,3.3,3.2C486.7,260.4,487.6,260.3,488.5,260.2z"/>
	<path d="M505,256.2l3,0.6c-0.5,1.8-1.6,3.2-3.2,4.4c-1.6,1.2-3.5,1.7-5.6,1.7c-2.8,0-5.1-1-6.9-3s-2.6-4.6-2.6-7.8
		c0-3.3,0.9-6,2.7-8s4.1-3,6.8-3c2.7,0,4.9,0.9,6.5,2.8c1.6,1.9,2.5,4.7,2.5,8.4h-15c0,3.1,0.7,5.2,2,6.3c1.3,1.1,2.7,1.6,4.2,1.6
		C502,260.3,503.9,258.9,505,256.2z M504.8,249.9c0-1.2-0.2-2.2-0.6-3.1s-1-1.7-1.8-2.3c-0.8-0.6-1.9-1-3.1-1c-1.6,0-3,0.6-4.1,1.7
		c-1.1,1.1-1.7,2.7-1.9,4.6H504.8z"/>
</g>
</svg>
