<?xml version="1.0" encoding="UTF-8"?>
<!-- Created with Inkscape (http://www.inkscape.org/) -->
<svg width="1e3" height="1e3" version="1.1" viewBox="0 0 264.58 264.58" xmlns="http://www.w3.org/2000/svg">
 <style type="text/css">
  #pair1 {
   animation: fillpulse1 8s infinite;
  }
  #pair2 {
   animation: fillpulse2 8s infinite;
  }

  @keyframes fillpulse1 {
   0%, 10%, 45%, 100% {
    fill: rgba(255,255,255,0);
   }
   15%, 40% {
    fill: #0078CC;
   }
  }

  @keyframes fillpulse2 {
   0%, 55%, 90%, 100% {
    fill: rgba(255,255,255,0);
   }
   60%, 85% {
    fill: #0078CC;
   }
  }
 </style>
 <path id="pair1" d="m177.27 193.76-1e-5 50.974c0 3.6644-2.9501 6.6145-6.6145 6.6145h-76.729c-3.6644 0-6.6145-2.9501-6.6145-6.6145l4e-6 -50.975z" fill="none" fill-rule="evenodd" stroke="none"/>
 <rect id="pair2" x="132.29" y="132.29" width="44.978" height="61.467" fill="none" fill-rule="evenodd" stroke="none"/>
 <g display="none" fill="none" stroke="#000" stroke-width=".26458px">
  <path d="m87.312 70.828v122.93" display="inline"/>
  <path d="m177.27 70.828v122.93" display="inline"/>
  <path d="m177.27 193.76v57.599" display="inline"/>
  <path d="m132.29 251.35h-44.979" display="inline"/>
  <path d="m87.312 251.35-5e-6 -57.599" display="inline"/>
  <path d="m132.29 251.35h44.979" display="inline"/>
  <path d="m132.29 13.229h44.979" display="inline"/>
  <path d="m177.27 13.229v57.599" display="inline"/>
  <path d="m87.312 70.828v-57.599" display="inline"/>
  <path d="m87.312 13.229h44.979" display="inline"/>
 </g>
 <g fill="none" stroke="#000">
  <g stroke-width=".79375">
   <path d="m87.312 70.828h89.958"/>
   <path d="m87.312 193.76h89.958"/>
   <path d="m132.29 70.828v122.93"/>
   <path d="m87.312 132.29h89.958"/>
  </g>
  <path d="m132.29 30.784v22.49" stroke-linecap="round" stroke-width="1.3229"/>
  <circle cx="132.29" cy="222.55" r="11.906" stroke-linecap="round" stroke-linejoin="round" stroke-width="1.3229" style="paint-order:markers fill stroke"/>
  <g transform="matrix(.8492 0 0 .8492 16.531 15.239)">
   <circle cx="109.83" cy="101.65" r="5.2917" stroke-linecap="round" stroke-linejoin="round" stroke-width="1.3229" style="paint-order:markers fill stroke"/>
   <g stroke-width="1.1969">
    <path d="m109.8 94.549v-8.7803"/>
    <path d="m117.22 101.65h8.7803"/>
    <path d="m93.671 101.65h8.7803"/>
    <path d="m109.8 117.53v-8.7803"/>
   </g>
   <g transform="translate(-.1444 .27638)" stroke-width="1.1969">
    <path d="m114.98 96.33 6.2086-6.2086"/>
    <path d="m115.2 106.59 6.2086 6.2086"/>
    <path d="m98.55 89.944 6.2086 6.2086"/>
    <path d="m98.727 112.58 6.2086-6.2086"/>
   </g>
  </g>
  <g transform="matrix(.52248 0 0 .52248 52.416 109.91)">
   <circle cx="109.83" cy="101.65" r="5.2917" stroke-linecap="round" stroke-linejoin="round" stroke-width="1.3229" style="paint-order:markers fill stroke"/>
   <g stroke-width="1.1969">
    <path d="m109.8 94.549v-8.7803"/>
    <path d="m117.22 101.65h8.7803"/>
    <path d="m93.671 101.65h8.7803"/>
    <path d="m109.8 117.53v-8.7803"/>
   </g>
   <g transform="translate(-.1444 .27638)" stroke-width="1.1969">
    <path d="m114.98 96.33 6.2086-6.2086"/>
    <path d="m115.2 106.59 6.2086 6.2086"/>
    <path d="m98.55 89.944 6.2086 6.2086"/>
    <path d="m98.727 112.58 6.2086-6.2086"/>
   </g>
  </g>
 </g>
 <g transform="matrix(.65151 0 0 .65151 52.537 32.983)">
  <path d="m168.83 100.22c0-6.777-5.696-12.258-12.542-11.898-6.2018 0.36033-11.108 5.4812-11.253 11.683 0 3.0974 1.3498 5.3814 3.3732 7.6196 2.5716 3.033 2.6831 8.2418 2.6831 8.2418 0.0399 1.668 0.65137 1.4413 1.4413 1.4413h8.7934c0.78995 0 1.4812 0.18675 1.5106-1.4413 0 0 0.30796-5.9116 2.6126-8.0293 2.0234-2.1689 3.3813-4.5892 3.3813-7.6173zm-7.2732 15.831-9.0895 0.0399c-0.14552-2.9589-0.84266-6.7994-2.9354-9.0306-1.5868-1.7324-3.3346-4.1632-3.3746-6.9097 0.38859-6.5166 5.465-10.494 10.226-10.785 5.1901-0.29103 10.808 3.5426 11.287 10.572 0.15214 2.233-1.8349 5.6229-3.4217 7.279-2.162 2.3075-2.5455 5.8755-2.691 8.8343z" stroke-width=".069294"/>
  <path d="m152.02 118.53h9.8978l-0.4034 3.144h-9.0554z" fill="none" stroke="#000" stroke-linecap="round" stroke-linejoin="round" stroke-width="1.0583"/>
 </g>
 <g transform="matrix(.48442 0 0 .48442 76.287 81.165)">
  <g transform="matrix(.65151 0 0 .65151 49.895 100.4)">
   <path d="m168.83 100.22c0-6.777-5.696-12.258-12.542-11.898-6.2018 0.36033-11.108 5.4812-11.253 11.683 0 3.0974 1.3498 5.3814 3.3732 7.6196 2.5716 3.033 2.6831 8.2418 2.6831 8.2418 0.0399 1.668 0.65137 1.4413 1.4413 1.4413h8.7934c0.78995 0 1.4812 0.18675 1.5106-1.4413 0 0 0.30796-5.9116 2.6126-8.0293 2.0234-2.1689 3.3813-4.5892 3.3813-7.6173zm-7.2732 15.831-9.0895 0.0399c-0.14552-2.9589-0.84266-6.7994-2.9354-9.0306-1.5868-1.7324-3.3346-4.1632-3.3746-6.9097 0.38859-6.5166 5.465-10.494 10.226-10.785 5.1901-0.29103 10.808 3.5426 11.287 10.572 0.15214 2.233-1.8349 5.6229-3.4217 7.279-2.162 2.3075-2.5455 5.8755-2.691 8.8343z" stroke-width=".069294"/>
   <path d="m152.02 118.53h9.8978l-0.4034 3.144h-9.0554z" fill="none" stroke="#000" stroke-linecap="round" stroke-linejoin="round" stroke-width="1.0583"/>
  </g>
  <g transform="matrix(.65151 0 0 .65151 69.69 100.4)">
   <path d="m168.83 100.22c0-6.777-5.696-12.258-12.542-11.898-6.2018 0.36033-11.108 5.4812-11.253 11.683 0 3.0974 1.3498 5.3814 3.3732 7.6196 2.5716 3.033 2.6831 8.2418 2.6831 8.2418 0.0399 1.668 0.65137 1.4413 1.4413 1.4413h8.7934c0.78995 0 1.4812 0.18675 1.5106-1.4413 0 0 0.30796-5.9116 2.6126-8.0293 2.0234-2.1689 3.3813-4.5892 3.3813-7.6173zm-7.2732 15.831-9.0895 0.0399c-0.14552-2.9589-0.84266-6.7994-2.9354-9.0306-1.5868-1.7324-3.3346-4.1632-3.3746-6.9097 0.38859-6.5166 5.465-10.494 10.226-10.785 5.1901-0.29103 10.808 3.5426 11.287 10.572 0.15214 2.233-1.8349 5.6229-3.4217 7.279-2.162 2.3075-2.5455 5.8755-2.691 8.8343z" stroke-width=".069294"/>
   <path d="m152.02 118.53h9.8978l-0.4034 3.144h-9.0554z" fill="none" stroke="#000" stroke-linecap="round" stroke-linejoin="round" stroke-width="1.0583"/>
  </g>
 </g>
 <g fill="none" stroke="#000" stroke-width="1.0583">
  <rect x="84.667" y="10.583" width="95.25" height="243.42" rx="7.9375" ry="7.9375"/>
  <rect x="87.312" y="13.229" width="89.958" height="238.12" rx="6.6146" ry="6.6146"/>
 </g>
</svg>
