<?xml version="1.0" encoding="utf-8"?>
<!-- Generator: Adobe Illustrator 21.0.0, SVG Export Plug-In . SVG Version: 6.00 Build 0)  -->
<svg version="1.1" id="Layer_1" xmlns="http://www.w3.org/2000/svg" xmlns:xlink="http://www.w3.org/1999/xlink" x="0px" y="0px"
	 viewBox="0 0 581.1 1084.4" style="enable-background:new 0 0 581.1 1084.4;" xml:space="preserve">
<style type="text/css">
	.st0{fill:#010101;}
</style>
<g>
	<path class="st0" d="M581.1,290.5c0-77.6-30.2-150.6-85.1-205.4C441.1,30.2,368.1,0,290.5,0S140,30.2,85.1,85.1S0,212.9,0,290.5
		c0,14.1,1,28.2,3,42v0.1l0,0l0,0v0.2c0,0.2,0.1,0.5,0.1,0.7c0.1,0.6,0.2,1.2,0.3,1.9c0.1,0.6,0.2,1.1,0.3,1.7
		c0,0.3,0.1,0.6,0.1,0.8c1.1,6.8,2.6,13.9,4.3,21.4c0.1,0.3,0.2,0.6,0.2,0.9c5.6,23.6,14.6,52.1,27.2,79.1
		c9.5,20.3,20.9,40.9,32,60.8c20.7,37.2,42,75.7,51.5,113.6c11.1,61.4,17,128.9,18,206.4c0.1,6,2.6,12.7,7.6,20.6
		c5.6,8.9,10.8,16.5,15.8,23.2c0.3,6.9,1,12.3,3.6,16.9c1.6,3,5.1,5.2,11.6,9.1c1.4,0.8,3.2,1.9,4.6,2.8c1.3,1.8,2.6,3.7,3.6,5.6
		c1.2,2.2,2.1,4.5,2.6,6.7l0.1,0.3l0.1,0.2c1.6,4.5,3,10.3,4.2,17.2c1.3,7.5,2.3,16.2,3.1,25.4c0.8,10.1,1.3,20.6,1.6,31
		c0.3,11.5,0.4,22.9,0.1,33.1l-0.1,3.6l0.5,0.1l27.7,30h-0.2l9.4,8.2l24.3,21.2l0.1,0.1l0.6,0.5c4.4,3.8,8.9,7.6,31.9,8.5h0.4
		c23-0.8,27.4-4.7,31.9-8.5l0.6-0.5l0.1-0.1l24.3-21.2l9.4-8.2h-0.1l28.5-30.1c-0.1,0-0.2,0-0.4,0l-0.1-3.6
		c-0.2-10.2-0.2-21.6,0.1-33.1c0.2-10.3,0.8-20.9,1.6-31c0.8-9.2,1.8-17.8,3.1-25.4c1.1-6.8,2.5-12.7,4.2-17.2l0.1-0.2l0.1-0.3
		c0.5-2.2,1.4-4.4,2.5-6.7c1.4-2.5,3.2-5.1,5.1-7.4l0.1-0.1c0.9-0.4,1.8-0.9,2.6-1.2c7.4-3.4,11.4-5.4,13.2-8.8
		c2.5-4.6,3.3-10,3.6-16.9c5-6.7,10.2-14.3,15.8-23.2c5-7.9,7.5-14.6,7.6-20.6c1.1-77.5,7-145,18-206.4
		c9.5-37.9,30.8-76.4,51.5-113.6c11.1-19.9,22.5-40.6,32-60.8c18.2-38.9,28.8-80.7,32.6-106.8H578
		C580,318.8,581.1,304.7,581.1,290.5z M95.1,95.1c52.2-52.2,121.6-80.9,195.4-80.9s143.2,28.7,195.4,80.9s80.9,121.6,80.9,195.4
		c0,38.9-7.9,76.4-23.5,111.7c-165.1,4.4-335.1,4.4-505.8-0.2c-6.5-14.6-11.7-29.9-15.4-45.3c-1.6-6.6-2.8-12.8-3.9-18.5
		c0-0.1,0-0.2-0.1-0.3c-0.1-0.7-0.2-1.4-0.4-2.1c-0.1-0.4-0.1-0.8-0.2-1.1c-0.1-0.5-0.2-0.9-0.2-1.4c-0.1-0.9-0.3-1.7-0.4-2.5v-0.1
		v-0.3c-1.9-13.1-2.8-26.5-2.8-39.8C14.2,216.7,42.9,147.3,95.1,95.1z M284.4,872.7L284.4,872.7c2.1,0.1,4.2,0.1,6.3,0.1
		c2.1,0,4.2,0,6.3,0v-0.1c37.2-0.5,73.9-2.7,109.4-6.7c-0.2,2.8-0.6,5.4-1.3,7.3c-1.5,0.9-5,2.6-7.2,3.6c-5.1,2.4-8.4,4-10.5,5.9
		c-0.3,0-0.6,0.1-0.9,0.1c-5.3,0.5-11,1-17,1.4c-11.7,0.8-24.3,1.4-36.9,1.8c-14.6,0.5-29.2,0.7-42.8,0.8
		c-13.5-0.1-28.3-0.3-42.8-0.8c-12.6-0.4-25.2-1-36.8-1.8c-6-0.4-11.6-0.8-16.6-1.3c-1.1-0.1-2.1-0.2-3.2-0.3
		c-1.8-1.3-4.1-2.8-7.3-4.7c-2.1-1.3-5.5-3.3-6.8-4.3c-0.8-1.9-1.2-4.6-1.4-7.5C210.4,870,247.1,872.2,284.4,872.7z M316.4,1069.9
		l-0.6,0.5c-3.2,2.7-6.4,5.5-25.8,6.3c-19.4-0.7-22.6-3.5-25.8-6.3l-0.6-0.5l-15.7-13.6c2.4,0.1,5.1,0.2,7.9,0.3
		c5,0.2,10.4,0.3,16.3,0.3c5.7,0.1,11.8,0.1,17.9,0.1s12.2-0.1,17.9-0.1c5.8-0.1,11.3-0.2,16.3-0.3c2.8-0.1,5.4-0.2,7.8-0.3
		L316.4,1069.9z M386.1,896.4c-1.4,2.6-2.4,5.3-3.1,8.1c-1.7,4.8-3.2,10.9-4.4,17.8c-1.3,7.6-2.3,16.3-3,25.5
		c-0.8,9.7-1.3,20.2-1.6,30.7c-0.3,10.1-0.4,20.1-0.2,29.3l-3.7,0.3c-3,0.2-5.7,0.4-8.4,0.6c-3.6,0.2-7.2,0.4-10.6,0.6
		c-3.8,0.2-7.5,0.4-11.1,0.5c-4.2,0.2-8.2,0.3-12.1,0.4c-4.2,0.1-8.4,0.2-12.4,0.3c-4.4,0.1-8.7,0.2-12.8,0.2
		c-4.4,0.1-8.7,0.1-12.8,0.1s-8.4-0.1-12.8-0.1c-4.1-0.1-8.4-0.1-12.8-0.2c-4.1-0.1-8.2-0.2-12.4-0.3c-3.9-0.2-7.9-0.3-12.1-0.4
		c-3.6-0.2-7.3-0.3-11.1-0.5c-3.4-0.2-6.9-0.4-10.6-0.6c-2.6-0.2-5.4-0.4-8.3-0.6l-3.7-0.3c0.1-6.4,0.1-13.1,0-20
		c10,0.9,20.9,1.5,32.1,2c20.6,0.9,42,1.3,60.5,1.3v-6c-18.7,0-40-0.4-60.2-1.3c-11.4-0.5-22.4-1.2-32.5-2.1c0-1.1-0.1-2.2-0.1-3.2
		c-0.1-4.9-0.3-9.9-0.6-14.7c10.2,0.9,21.4,1.6,32.9,2.1c20.6,0.9,42,1.3,60.5,1.3v-6c-18.7,0-40-0.4-60.2-1.3
		c-11.7-0.5-23.1-1.2-33.5-2.2c-0.2-3.4-0.4-6.7-0.7-10c-0.2-2.7-0.5-5.4-0.8-8c10.6,1,22.5,1.7,34.7,2.3c20.6,0.9,42,1.3,60.5,1.3
		v-6c-18.7,0-40-0.4-60.2-1.3c-12.5-0.6-24.7-1.3-35.6-2.4c-0.5-4-1-7.8-1.7-11.4c-0.4-2.4-0.8-4.6-1.3-6.7
		c11.6,1.1,24.7,2,38.3,2.6c20.6,0.9,42,1.3,60.5,1.3v-6c-18.7,0-40-0.4-60.2-1.3c-14.3-0.6-28.1-1.6-40.1-2.8c-0.5-1.8-1-3.4-1.6-5
		c-0.6-2.7-1.7-5.4-3-8.1c-0.9-1.7-2-3.3-3-4.9l3.4,0.4c5.3,0.5,10.9,1,16.6,1.3c11.2,0.8,23.7,1.3,36.5,1.8
		c14.3,0.5,28.8,0.7,42.2,0.8h0.1c13.5-0.1,28-0.3,42.3-0.8c12.8-0.4,25.3-1,36.5-1.8c5.9-0.4,11.6-0.8,16.9-1.4l3.6-0.4
		C388.1,893,387,894.7,386.1,896.4z M408,857.4l-1.1,1.5c-37.6,4.2-76.6,6.5-116.2,6.8c-39.6-0.3-78.6-2.6-116.3-6.8l-1.1-1.5
		c-4.8-6.3-9.9-13.8-15.4-22.3c23.4,6.2,65,11.5,126.4,11.9l0,0c2.1,0,4.2,0,6.2,0h0.1h0.1c2,0,4.1,0,6.2,0l0,0
		c61.3-0.4,102.9-5.7,126.3-11.9C417.9,843.6,412.8,851.1,408,857.4z M501.2,493.5c-21.2,38.1-43,77.5-52.9,117.3l-0.1,0.4
		C437,673.4,431,741.8,429.9,820.1c0,1.3-0.4,3.3-1.6,6.2c-25.1,8.3-76.4,13.4-136.1,13.6c-61.1,0-113.7-5.1-139.2-13.6
		c-1.2-2.9-1.6-4.9-1.6-6.2c-1.1-78.4-7.1-146.7-18.3-208.9l-0.1-0.4c-9.9-39.8-31.8-79.2-52.9-117.3c-11-19.7-22.3-40.1-31.5-60
		c-3.8-8-7.2-16.2-10.3-24.3c86.1,2.3,172.1,3.4,257.4,3.4c83.3,0,165.9-1.1,247.3-3.3c-3.1,8.1-6.5,16.2-10.2,24.2
		C523.5,453.3,512.2,473.7,501.2,493.5z"/>
	<path class="st0" d="M267.6,753.6c0-0.1,0-0.3,0-0.4c0-1.4,0-2.9,0-4.3c0-3.1,0-6.2,0-9.3c0-0.1,0-0.3,0-0.4
		c-0.1-0.5-0.5-0.8-1-0.8c-0.9,0-1.8,0-2.7,0c-1.1,0-2.1,0-3.2,0c-0.5,0-0.8-0.3-1-0.7c0-0.1,0-0.3,0-0.4c0-1.9,0-3.8,0-5.7
		c0-0.6-0.2-0.9-0.8-1.1l0,0c-4.7,0-9.5,0-14.2,0c-0.1,0-0.1,0-0.2,0.1c-0.3,0.1-0.4,0.3-0.5,0.6c0,0.1-0.1,0.2-0.1,0.2
		c0,2.1,0,4.2,0,6.3c0,0,0.1,0,0.1,0.1c0.2,0.5,0.5,0.7,1.1,0.7c1,0,1.9,0,2.9,0c0.9,0,1.9,0,2.8,0c0.2,0,0.4,0,0.5,0.1
		c0.4,0.2,0.5,0.5,0.5,0.9c0,1.9,0,3.8,0,5.7c0,0.1,0,0.2,0,0.2c0,0.4,0.3,0.8,0.7,0.9c0.1,0,0.3,0,0.4,0c1.9,0,3.8,0,5.7,0
		c0.1,0,0.3,0,0.4,0c0.4,0.1,0.7,0.5,0.7,0.9c0,0.7,0,1.4,0,2.1c0,1.3,0,2.6,0,3.9c0,0.4,0.2,0.7,0.5,0.8c0.2,0.1,0.3,0.1,0.5,0.1
		c1.9,0,3.9,0,5.8,0h0.1C267.1,754.3,267.5,754,267.6,753.6z"/>
	<path class="st0" d="M265,735.9c0.2,0.2,0.4,0.2,0.7,0.2c1.8,0,3.6,0,5.5,0c0.3,0,0.2,0,0.2,0.2c0,1.6,0,3.2,0,4.8c0,4,0,8,0,12
		c0,0.1,0,0.3,0,0.4c0.1,0.5,0.5,0.8,1,0.8c0.6,0,1.1,0,1.7,0c0.8,0,1.5,0,2.3,0c0.6,0,1-0.4,1-1c0-0.1,0-0.2,0-0.3
		c0-5.6,0-11.1,0-16.7c0-0.3,0-0.2,0.2-0.2c1.8,0,3.6,0,5.5,0c0.6,0,1-0.4,1-1c0-1.2,0-2.4,0-3.6c0-0.5-0.3-0.9-0.8-1l0,0
		c-5.9,0-11.9,0-17.8,0l0,0c-0.5,0.1-0.8,0.5-0.8,1c0,0.6,0,1.2,0,1.8s0,1.2,0,1.8C264.6,735.4,264.8,735.7,265,735.9z"/>
	<path class="st0" d="M325,748.1c-0.2-1.3-0.8-2.3-1.9-2.9c-0.6-0.3-1.2-0.5-1.9-0.7c-0.6-0.1-1.2-0.2-1.8-0.3
		c-0.3-0.1-0.6-0.2-0.9-0.3c-0.5-0.3-0.5-0.9,0-1.2c0.2-0.1,0.4-0.2,0.6-0.2c0.6-0.1,1.2-0.1,1.8,0c0.4,0.1,0.9,0.2,1.3,0.4
		c0.5,0.2,1,0.1,1.3-0.3c0.3-0.6,0.7-1.2,1-1.8c0.3-0.5,0-1.1-0.5-1.3c-1.3-0.6-2.6-0.9-4-1c-1-0.1-2,0-2.9,0.2
		c-0.8,0.2-1.6,0.4-2.4,0.9c-0.9,0.5-1.5,1.2-1.9,2.2c-0.4,1.1-0.5,2.2-0.2,3.4c0.3,1.1,1,1.9,1.9,2.5c0.6,0.3,1.2,0.6,1.8,0.7
		c0.7,0.2,1.3,0.3,2,0.5c0.3,0.1,0.5,0.2,0.8,0.3c0.2,0.1,0.3,0.2,0.4,0.4s0.1,0.4-0.1,0.6c-0.1,0.1-0.3,0.2-0.4,0.3
		c-0.3,0.1-0.7,0.2-1,0.2c-0.7,0-1.4-0.1-2.1-0.4c-0.6-0.2-1.2-0.5-1.7-0.8s-1.1-0.1-1.4,0.4c-0.3,0.6-0.6,1.2-0.9,1.8
		c-0.2,0.5-0.1,1,0.3,1.3c1.7,1.1,3.5,1.7,5.5,1.8c0.4,0,0.8,0,1.3,0c0,0,0,0,0.1,0c0.3,0,0.6-0.1,0.9-0.1c0.9-0.1,1.8-0.3,2.6-0.7
		c1.2-0.6,2.1-1.5,2.5-2.8C325,749.9,325.1,749,325,748.1z"/>
	<path class="st0" d="M335.3,738.8c-0.4,0-0.9,0-1.3,0c-0.1,0-0.1,0-0.2,0s-0.1,0-0.1-0.1s0-0.1,0-0.2c0-1,0-2,0-3
		c0-0.1,0-0.2,0-0.2c-0.1-0.5-0.5-0.9-1-0.9c-0.2,0-0.4,0-0.7,0c-1.1,0-2.2,0-3.2,0c-0.3,0-0.5,0.1-0.7,0.3s-0.3,0.5-0.3,0.8
		c0,1,0,2.1,0,3.1c0,0.3,0,0.2-0.3,0.2s-0.6,0-1,0c-0.6,0-1,0.4-1,1c0,0.9,0,1.9,0,2.8c0,0.1,0,0.2,0,0.3c0.1,0.4,0.5,0.7,1,0.7
		c0.3,0,0.6,0,0.9,0s0.2,0,0.2,0.2c0,2.2,0,4.3,0,6.5c0,0.2,0,0.4,0,0.7c0.2,1.3,0.8,2.2,2,2.8c0.8,0.4,1.7,0.6,2.6,0.6
		c1,0.1,2,0,3-0.2c0.2,0,0.4-0.1,0.5-0.2c0.3-0.2,0.5-0.4,0.4-0.8c0-0.6,0-1.3,0-1.9c0-0.4-0.2-0.7-0.6-0.9
		c-0.2-0.1-0.4-0.1-0.6-0.1s-0.5-0.1-0.7-0.2c-0.5-0.2-0.9-0.6-0.9-1.2c0-1.8,0-3.5,0-5.3c0-0.2,0-0.2,0.2-0.2c0.1,0,0.1,0,0.2,0
		c0.5,0,1,0,1.4,0s0.6-0.2,0.9-0.5c0-0.1,0-0.2,0.1-0.2c0-1.1,0-2.2,0-3.4c-0.1-0.1-0.1-0.2-0.2-0.3
		C335.9,738.9,335.6,738.8,335.3,738.8z"/>
	<path class="st0" d="M243.9,753.7c0.2,0.5,0.5,0.7,1,0.7c1.3,0,2.7,0,4,0c0.6,0,1.3,0,1.9,0c0.6,0,1-0.5,1-1c0-2,0-3.9,0-5.9
		c0-0.1,0-0.2,0-0.3c-0.1-0.4-0.5-0.7-1-0.7c-2,0-3.9,0-5.9,0c-0.4,0-0.8,0.2-0.9,0.6c0,0.1,0,0.1-0.1,0.2
		C243.8,749.3,243.8,751.5,243.9,753.7C243.9,753.6,243.9,753.6,243.9,753.7z"/>
	<path class="st0" d="M293.4,749.8c0.2,1.9,1.2,3.2,2.9,4.1c0.7,0.3,1.4,0.5,2.1,0.5c0.9,0,1.9,0,2.8-0.2c0.6-0.2,1.2-0.4,1.8-0.8
		c0.3-0.2,0.6-0.5,0.7-0.9c0,0.3,0,0.6,0,0.9c0,0.5,0.3,0.9,0.8,1c0.1,0,0.2,0,0.3,0c1.4,0,2.8,0,4.1,0c0.6,0,1.1-0.4,1.1-1.1
		c0-1.2,0-2.3,0-3.5c0-3.3,0-6.6,0-9.8c0-0.1,0-0.2,0-0.2c0-0.4-0.2-0.7-0.6-0.8c-0.2-0.1-0.3-0.1-0.5-0.1c-1.4,0-2.8,0-4.1,0
		c-0.1,0-0.1,0-0.2,0c-0.4,0-0.8,0.3-0.9,0.7c0,0.1,0,0.3,0,0.4c0,2.3,0,4.7,0,7c0,0.1,0,0.3,0,0.4c0,0.8-0.4,1.4-1.1,1.7
		s-1.4,0.3-2.1-0.2c-0.6-0.4-0.8-1-0.8-1.7c0-2.4,0-4.8,0-7.2c0-0.1,0-0.2,0-0.3c0-0.4-0.3-0.7-0.7-0.8c-0.1,0-0.3,0-0.4,0
		c-0.6,0-1.3,0-1.9,0c-0.8,0-1.5,0-2.3,0c-0.6,0-1,0.5-1,1c0,3.1,0,6.2,0,9.3C293.4,749.4,293.4,749.6,293.4,749.8z"/>
	<path class="st0" d="M286.9,746.5c0-0.2,0-0.4,0.1-0.6c0.3-1.3,1.4-2.2,2.7-2.2c0.3,0,0.7,0,1,0c0.4,0,0.7-0.2,0.9-0.6
		c0.1-0.2,0.1-0.3,0.1-0.5c0-1,0-2,0-3c0,0,0,0,0-0.1c0-0.6-0.4-1-1-1c-0.2,0-0.4,0-0.6,0c-0.5,0-1,0.1-1.5,0.2
		c-0.7,0.2-1.3,0.5-1.6,1.1c0-0.6-0.5-1.1-1.1-1.1c-0.7,0-1.3,0-2,0c-0.6,0-1.2,0-1.8,0c-0.4,0-0.8,0.3-0.9,0.7c0,0.1,0,0.3,0,0.4
		c0,2.8,0,5.6,0,8.3c0,1.7,0,3.4,0,5.1c0,0.7,0.5,1.1,1.1,1.1s1.3,0,1.9,0c0.7,0,1.3,0,2,0c0.3,0,0.6-0.1,0.8-0.3
		c0.2-0.2,0.3-0.5,0.3-0.8C286.9,751,286.9,748.8,286.9,746.5z"/>
</g>
<g>
	<path d="M261.7,778.6l-3,12.6h-1.6l-2.7-9.8l-2.5,9.8h-1.6l-3.2-12.6h1.6l2.5,10.2l2.7-10.2h1.3l2.9,10.2l2.3-10.2H261.7z"/>
	<path d="M270.3,791.2h-1.4c-0.1-0.3-0.1-0.9-0.2-1.7c-0.6,1.3-1.7,1.9-3.3,1.9c-1,0-1.8-0.3-2.4-0.8c-0.6-0.6-0.8-1.2-0.8-2
		c0-0.9,0.4-1.7,1.2-2.3c0.8-0.6,2.2-0.9,4.1-0.9c0.3,0,0.7,0,1.2,0c0-0.7-0.1-1.3-0.2-1.6c-0.1-0.3-0.4-0.6-0.7-0.8
		c-0.4-0.2-0.9-0.3-1.5-0.3c-1.5,0-2.3,0.6-2.6,1.7l-1.3-0.2c0.3-1.7,1.7-2.6,4.1-2.6c1.3,0,2.2,0.3,2.7,0.9c0.5,0.6,0.8,1.6,0.8,3
		v4C270.1,790.1,270.2,790.7,270.3,791.2z M268.7,786.5c-0.6,0-1-0.1-1.3-0.1c-1.1,0-2,0.2-2.7,0.6c-0.6,0.4-0.9,0.9-0.9,1.6
		c0,0.5,0.2,0.8,0.5,1.2s0.8,0.5,1.5,0.5c0.9,0,1.6-0.3,2.2-1c0.6-0.6,0.8-1.4,0.8-2.2C268.7,787,268.7,786.8,268.7,786.5z"/>
	<path d="M274.4,791.2H273v-9.3h1.3v2.2c0.4-1,0.9-1.7,1.3-2c0.5-0.3,0.9-0.5,1.4-0.5c0.1,0,0.3,0,0.6,0v1.4h-0.3
		c-0.8,0-1.5,0.3-2,0.9c-0.5,0.6-0.8,1.4-0.8,2.3V791.2z"/>
	<path d="M291.7,791.2h-1.4v-5.8c0-0.6,0-1-0.1-1.3c-0.1-0.3-0.3-0.6-0.6-0.8c-0.3-0.2-0.7-0.4-1.1-0.4c-0.6,0-1.1,0.3-1.6,0.8
		c-0.5,0.5-0.8,1.3-0.8,2.3v5.2h-1.4v-6.1c0-0.8-0.2-1.4-0.6-1.7c-0.4-0.3-0.8-0.5-1.2-0.5c-0.6,0-1.1,0.3-1.6,0.8s-0.7,1.2-0.7,2
		v5.6h-1.4v-9.3h1.2v1.8c0.7-1.4,1.6-2,2.9-2c0.7,0,1.2,0.2,1.7,0.7c0.5,0.4,0.8,1,0.9,1.6c0.6-1.5,1.6-2.2,2.9-2.2
		c0.6,0,1.2,0.2,1.7,0.5c0.5,0.4,0.8,0.8,0.9,1.2c0.1,0.5,0.2,1.1,0.2,2V791.2z"/>
	<path d="M310,781.9l-2.7,9.3h-1.2l-2.1-6.9l-1.9,6.9H301l-2.8-9.3h1.5l2,6.9l1.9-6.9h1.1l2.1,7l2.1-7H310z"/>
	<path d="M319.1,791.2h-1.4v-5.6c0-0.7,0-1.2-0.1-1.5c-0.1-0.3-0.3-0.6-0.6-0.9c-0.3-0.2-0.7-0.4-1.1-0.4c-0.7,0-1.4,0.3-1.9,0.9
		c-0.5,0.6-0.8,1.4-0.8,2.4v5h-1.4v-12.6h1.4v5c0.7-1.3,1.6-2,2.8-2c0.5,0,1,0.1,1.5,0.3c0.4,0.2,0.8,0.5,1,0.8
		c0.2,0.4,0.4,0.7,0.5,1c0.1,0.3,0.1,0.9,0.1,1.7V791.2z"/>
	<path d="M323.5,778.6v1.6h-1.6v-1.6H323.5z M323.4,781.9v9.3H322v-9.3H323.4z"/>
	<path d="M330.5,790.2v1.1c-0.5,0.1-1,0.1-1.3,0.1c-1.8,0-2.7-0.9-2.7-2.8V783h-1.6v-1.1h1.6l0.1-2.3l1.3-0.1v2.5h2.1v1.1h-2.1v5.8
		c0,1,0.5,1.4,1.5,1.4C329.7,790.3,330.1,790.3,330.5,790.2z"/>
	<path d="M337.9,788.4l1.3,0.3c-0.2,0.8-0.7,1.5-1.4,2c-0.7,0.5-1.6,0.8-2.5,0.8c-1.3,0-2.3-0.4-3.1-1.3s-1.2-2.1-1.2-3.5
		c0-1.5,0.4-2.7,1.2-3.6c0.8-0.9,1.8-1.4,3.1-1.4c1.2,0,2.2,0.4,2.9,1.3c0.7,0.8,1.1,2.1,1.1,3.8h-6.8c0,1.4,0.3,2.4,0.9,2.8
		s1.2,0.7,1.9,0.7C336.6,790.3,337.5,789.6,337.9,788.4z M337.9,785.6c0-0.5-0.1-1-0.3-1.4c-0.2-0.4-0.4-0.8-0.8-1
		c-0.4-0.3-0.8-0.4-1.4-0.4c-0.7,0-1.3,0.3-1.8,0.8c-0.5,0.5-0.8,1.2-0.8,2.1H337.9z"/>
</g>
</svg>
