<svg height="960" viewBox="0 0 960 960" width="960" xmlns="http://www.w3.org/2000/svg"><path d="m331.25467 9.60586889c33.927061-6.3800124 71.36251-9.00988517 111.01626-8.55628441 31.710161.36273375 63.457465 2.69295621 92.570908 6.30331338l1.511457.18701754 38.980784 4.7306917c7.200935.8870253 12.69151 1.5854024 17.808006 2.2687183l6.591583.8998238 2.71497.3813865 6.424316.9220191c51.942052 7.573651 92.067128 17.2530693 129.102719 33.0184229 47.226201 20.1033038 85.781461 49.2539841 115.449281 89.9547543 21.539742 29.550001 37.218907 63.345995 48.027715 101.401528 9.202578 32.400336 14.785102 67.398186 17.728921 106.711149l.073657.989774c.358448 4.847114.673414 9.558763.949446 14.249196l.101695 1.75814.098099 1.757491.094556 1.758179c.046401.879485.091493 1.75973.135306 2.641489l.08593 1.765758c.954753 20.039855 1.26275 41.115219 1.273194 71.996433l.000158 2.750484c-.000298 1.388189-.001155 2.795966-.002541 4.224084l-.059975 34.541101c-.108812 75.477642-2.913255 128.307296-11.325463 179.052151-11.428285 68.938687-32.727724 124.231783-67.917542 166.1338-56.987104 67.856975-166.223475 107.721184-308.997502 121.243091-79.778246 7.555675-144.670245 7.499923-200.928004-2.727563l-1.936879-.357336-2.802208-.32573c-70.02677-8.326366-119.297528-25.240374-156.77948-50.583293l-1.155249-.786326c-8.395182-5.752353-15.978918-11.761892-23.57184-18.487215-2.452503-2.172271-4.832156-4.350939-7.442904-6.800335l-1.448791-1.364472-8.561347-8.150355c-46.136105-44.16492-71.9898061-91.67208-85.6191652-155.149667-6.0602195-28.224959-9.8939616-60.059203-12.484014-100.44522l-.234702-3.717399c-.2143763-3.451187-.417095-6.875799-.6108903-10.336668l-.0888203-1.600127c-1.249594-22.711425-2.1356874-47.386138-3.4226331-91.58742l-.6423423-22.507273c-2.8973278-106.019059.5098616-168.732394 14.999562-224.910517 17.1929974-66.659095 50.5791013-119.596037 107.1219082-169.0213152 15.015743-13.1255829 41.481505-28.2466623 72.059462-41.4549469l1.978403-.8494546c35.241773-15.0406103 73.104549-26.4395189 108.99324-31.8650386l-.798709.12189204zm197.268525 37.27119461c-26.357491-3.2179261-62.722032-6.2314076-101.629236-5.8427146-12.323142.2884239-24.493174.9326369-36.372502 1.9693955-62.25165 5.4329615-110.753616 21.1548227-140.029246 48.5536034-49.660596 46.4768762-77.928104 94.4650092-92.758456 156.0269782-13.309045 55.246905-16.480178 119.930901-13.518082 232.031883 1.718911 65.052498 2.686125 95.219419 4.262117 124.17437l.161497 2.925187.222326 3.900771.231 3.918182c2.416173 40.337011 5.907089 71.811418 11.229057 98.98853l.383265 1.933976c11.846471 59.07275 33.434206 101.198746 73.484225 141.82371 29.893544 30.322686 73.48407 48.650309 130.324857 56.723177 4.216445.598845 8.493169 1.140967 12.833164 1.627335 48.280136 4.435736 100.776359 2.141811 152.571965-2.763671 125.564119-11.891983 230.918-46.155836 282.137934-107.145595 64.395851-76.678886 69.877354-207.153914 69.877354-324.111196l.001273-3.063245c.081538-101.330465 3.835095-226.550744-60.834769-315.270216-69.29262-95.0613515-187.328503-103.3498497-291.181792-116.228693zm-295.196452 33.3875379-.692512.3047022c-26.739871 11.8146021-47.869605 24.3252764-58.226227 33.3782214-102.9595839 89.999178-113.4886256 185.084441-108.3729402 365.910475 5.4133563 191.347913 7.9877651 276.008398 91.9435142 355.548742 16.373469 15.512355 36.870839 36.894902 82.333373 53.590218-7.286044-5.411039-14.077769-11.297188-20.365351-17.675032-42.859714-43.474994-66.257475-89.133048-78.851238-151.932193-5.545533-27.652948-9.182355-59.230806-11.698487-99.282757l-.268478-4.376409c-.138711-2.315712-.272545-4.612271-.402171-6.906165l-.110093-1.965926c-.088355-1.592297-.174774-3.18558-.25948-4.785365l-.084143-1.602155c-1.281696-24.605879-2.178196-51.172522-3.494616-99.584181l-.555243-20.742283c-3.005809-113.755326.232814-179.81597 14.067342-237.244193 15.400352-63.928087 44.694307-114.506384 95.03675-162.6356996zm217.146984 67.5774446c28.546806-1.864171 56.841422-1.135886 92.970371 1.422989l1.587869.113158 17.736884 1.307939 28.632155 1.996773 6.660259.496831 4.963362.392166c40.80165 3.304089 69.297278 8.072873 95.940992 17.51306 34.004954 12.048361 61.187299 31.166366 82.027193 59.675118 25.948276 35.458709 38.740259 81.851335 43.126193 141.847354.274569 3.755882.514565 7.410156.723302 11.050201l.081835 1.455466c.768305 13.94271 1.083888 27.847546 1.133224 46.634185l.006789 6.575916c0 4.030224-.013457 8.282295-.033648 12.796742l-.123472 22.437375-.019937 13.180657c-.088237 56.887463-1.607667 92.496123-6.718636 128.263277l-.327594 2.259389c-7.423119 50.468629-21.558582 89.575153-44.968594 117.352958-37.656793 44.72411-107.385741 67.181883-215.934075 75.188302-59.581361 4.403486-99.208608 4.820729-134.50219.030186-43.559332-5.912487-77.084871-20.048096-102.163979-45.031411-32.088057-32.004085-50.33451-65.593312-60.6758-110.977438-8.883665-38.987145-12.14222-82.615714-14.585878-173.827852l-.062131-2.370682c-1.9972-77.948843 1.274784-127.885023 12.619082-170.255633 12.676451-47.34616 35.999425-85.023394 75.174947-121.061903 25.446299-23.376579 65.245769-35.102991 116.731477-38.465123zm89.958191 21.260606c-34.534093-2.408624-61.620545-3.06852-88.654922-1.303114-47.346943 3.091862-83.185442 13.651223-104.499251 33.231432-36.426372 33.509503-57.714443 67.899441-69.390914 111.510708-10.841864 40.494034-13.960689 89.383935-11.883652 166.918105l.145454 5.336422c2.392364 86.249424 5.627756 128.070209 13.94777 164.583697 9.513975 41.75334 25.923785 71.961559 55.294949 101.255863 21.639037 21.556382 51.170168 34.0078 90.734672 39.378053 32.89241 4.464622 70.510672 4.164752 126.865685.096172l3.473837-.253797c103.618406-7.642792 168.881361-28.662192 202.110497-68.127672 20.603039-24.447116 33.54697-60.257202 40.477714-107.378243 5.196768-35.332017 6.745198-70.500221 6.833426-127.695347l.004814-7.172613.004909-2.91391.11523-21.751118c.029398-5.541595.04733-10.689196.051214-15.512279l.000238-3.557551c-.01238-17.494376-.231386-30.669468-.79315-43.189025l-.057324-1.249907c-.019492-.415997-.03937-.831402-.059639-1.24635l-.198241-3.819312c-.130001-2.365419-.273307-4.72954-.430863-7.117778l-.096251-1.436041c-.081647-1.199451-.166903-2.406201-.255887-3.62343-4.13746-56.597103-16.004092-99.63376-39.322436-131.49863-18.347868-25.099686-42.190551-41.868825-72.563555-52.630343-24.909131-8.825603-52.232139-13.348941-92.117396-16.529765l-2.508195-.198034-6.329377-.478221-30.005927-2.096643-14.457034-1.070172z"/></svg>