<?xml version="1.0" encoding="UTF-8"?>
<svg width="960px" height="960px" viewBox="0 0 960 960" version="1.1" xmlns="http://www.w3.org/2000/svg" xmlns:xlink="http://www.w3.org/1999/xlink">
    <style type="text/css">
	.pair {
	animation: fillpulse 8s infinite;
}

@keyframes fillpulse {
	0%, 66%, 72%, 76%, 82%, 86%, 92%, 96%, 100% {
		fill: rgba(255,255,255,0);
	}
	69%, 74%,79%, 84%,89%, 94% {
		fill: #0074CC;
	}
}

.move {
	animation: move 8s infinite;
}

@keyframes move {
	0%, 10%, 80%, 100% {
		transform: translate3d(0px, 0px, 0px);
        animation-timing-function: ease-in;
	}
    20%, 70% {
        transform: translate3d(22px, 0px, 0px);
        animation-timing-function: ease-out;
    }
}
</style>
    <title>nl.klikaanklikuit/drivers/ZTHS-100/assets/pair</title>
    <g id="nl.klikaanklikuit/drivers/ZTHS-100/assets/pair" stroke="none" stroke-width="1" fill="none" fill-rule="evenodd">
        <path d="M384.495543,39.3365591 C453.89512,26.0361698 533.251855,31.3090325 580.149819,37.1248477 C586.745425,37.9427686 593.398346,38.7421157 600.092397,39.5464292 C701.659453,51.7500652 811.619002,66.0705249 878.181942,157.387076 C940.818125,243.316575 941.227048,362.676601 940.966579,463.145714 C940.950414,469.380907 940.934434,475.540401 940.934434,481.610985 C940.934434,601.134187 934.388443,733.952894 868.714837,812.153258 C816.259697,874.61383 708.770103,910.614541 579.862012,922.823227 C512.303424,929.221597 443.579449,931.149736 384.259657,919.917407 C266.559772,906.594294 228.946639,870.203025 203.243818,845.659535 C202.176235,844.640106 201.130393,843.641399 200.10098,842.666126 C114.489132,761.55678 110.575233,675.829838 105.039063,480.140793 C99.8010094,294.989358 111.677872,198.331329 216.826705,106.418481 C239.547781,86.5575017 312.413891,50.2590401 384.495543,39.3365591 Z" id="Combined-Shape" stroke="#000000" stroke-width="20" stroke-linecap="round" stroke-linejoin="round"></path>
        <path d="M183.219162,479.880351 C178.053111,284.370338 188.685814,181.563676 292.659057,84.2561147 C361.516276,19.8133043 514.674231,27.8542821 587.98558,37.074023 C692.844671,50.2612537 812.023714,58.7482222 881.987423,156.085843 C947.943162,247.847341 943.410082,377.742529 943.410082,482.041884 C943.410082,601.79974 937.875491,735.399027 872.855976,813.91401 C821.139985,876.364185 714.765768,911.448495 587.98558,923.625235 C467.557738,935.191858 343.378758,932.578603 276.06788,864.301431 C191.285568,778.302013 188.685814,686.766673 183.219162,479.880351 Z" id="Path-47" stroke="#000000" stroke-width="10" stroke-linecap="round" stroke-linejoin="round"></path>
        <path d="M305.006766,479.727596 C301.216214,338.229305 313.217881,263.852036 389.507482,193.671383 C440.030958,147.257323 552.206954,156.269494 606.201138,160.305085 C684.469855,166.147014 770.587466,166.439394 821.922821,236.665607 C870.317358,302.797469 864.891244,406.257097 864.891244,481.284302 C864.891244,567.4315 862.930279,671.564024 815.222689,728.172805 C777.276463,773.240668 703.553909,792.648456 606.201138,799.829102 C508.848367,807.024164 426.722688,806.92056 377.333828,757.72035 C315.125432,695.674752 309.017881,629.446787 305.006766,479.727596 Z" id="Path-47" stroke="#000000" stroke-width="10" stroke-linecap="round" stroke-linejoin="round"></path>
        <ellipse class="pair" fill="#0074CC" transform="translate(614.000000, 706.000000) rotate(7.000000) translate(-614.000000, -706.000000) " cx="614" cy="706" rx="15.1785714" ry="17"></ellipse>
        <ellipse id="Oval" fill="#000000" transform="translate(146.000000, 357.000000) rotate(6.000000) translate(-146.000000, -357.000000) " cx="146" cy="357" rx="9" ry="17"></ellipse>
        <rect class="move" stroke="#000000" stroke-width="10" fill="#FFFFFF" stroke-linecap="round" stroke-linejoin="round" x="-73" y="346" width="201" height="22" rx="11"></rect>
    </g>
</svg>