<?xml version="1.0" encoding="UTF-8"?>
<svg width="960px" height="960px" viewBox="0 0 960 960" version="1.1" xmlns="http://www.w3.org/2000/svg" xmlns:xlink="http://www.w3.org/1999/xlink">
    <!-- Generator: Sketch 60.1 (88133) - https://sketch.com -->
    <title>icon3</title>
    <desc>Created with Sketch.</desc>
    <g id="icon3" stroke="none" stroke-width="1" fill="none" fill-rule="evenodd">
        <path d="M6,45.4623377 L6,277.654545 L6,280.124675 C6,302.355844 23.28125,319.646753 45.5,319.646753 L282.5,319.646753 C304.71875,319.646753 322,336.937662 322,359.168831 L322,361.638961 L322,591.361039 L322,596.301299 C322,618.532468 339.28125,635.823377 361.5,635.823377 L596.03125,635.823377 L598.5,635.823377 C620.71875,635.823377 638,653.114286 638,675.345455 L638,677.815584 L638,697.576623 L638,912.477922 C638,934.709091 655.28125,952 677.5,952 L682.4375,952 L912.03125,952 L914.5,952 C936.71875,952 954,934.709091 954,912.477922 L954,912.477922 L954,361.638961 L954,359.168831 C954,336.937662 936.71875,319.646753 914.5,319.646753 L912.03125,319.646753 L682.4375,319.646753 L679.96875,319.646753 C657.75,319.646753 640.46875,302.355844 640.46875,280.124675 L640.46875,277.654545 L640.46875,45.4623377 L640.46875,40.5220779 C640.46875,18.2909091 623.1875,1 600.96875,1 L598.5,1 L47.96875,1 L45.5,1 C23.28125,1 6,18.2909091 6,40.5220779 L6,45.4623377" id="Path" fill="#000000" fill-rule="nonzero"></path>
        <path d="M326,684.375 C326,662.226563 308.5,645 286,645 L283.5,645 L48.5,645 L46,645 C23.5,645 6,662.226562 6,684.375 L6,920.625 C6,942.773438 23.5,960 46,960 L48.5,960 L283.5,960 L286,960 C308.5,960 326,942.773438 326,920.625 L326,684.375 Z" id="Path" fill="#000000" fill-rule="nonzero"></path>
    </g>
</svg>