<?xml version="1.0" encoding="utf-8"?>
<svg version="1.1" xmlns="http://www.w3.org/2000/svg" x="0px" y="0px" viewBox="-35 925 70 70" xml:space="preserve">
<g>
	<path fill="none" stroke="#000000" stroke-width="0.8" stroke-linecap="round" stroke-linejoin="round"
          stroke-miterlimit="10"
          d="M-20,967c0,0.3,9,0.5,20,0.5s20-0.2,20-0.5c0,0,0-32,0-32c0,0.3-9,0.5-20,0.5s-20-0.2-20-0.5C-20,935-20,967-20,967z"/>
    <path fill="none" stroke="#000000" stroke-width="0.8" stroke-miterlimit="10"
          d="M22,988.1c0,0.3-9.8,0.5-22,0.5s-22-0.2-22-0.5"/>
    <path fill="none" stroke="#000000" stroke-width="0.8" stroke-miterlimit="10"
          d="M22,931.5c0,0.3-9.8,0.5-22,0.5s-22-0.2-22-0.5c0-0.8,9.8-1.5,22-1.5S22,930.7,22,931.5c0,0,0,58,0,58c0,0.3-9.8,0.5-22,0.5s-22-0.2-22-0.5v-58"/>
    <g>
        <path d="M2.5,974.8c1.1,0,2,0.9,2,2v5c0,1.1-0.9,2-2,2h-5c-1.1,0-2-0.9-2-2v-5c0-1.1,0.9-2,2-2H2.5 M2.5,974.3h-5c-1.4,0-2.5,1.1-2.5,2.5v5c0,1.4,1.1,2.5,2.5,2.5h5c1.4,0,2.5-1.1,2.5-2.5v-5C5,975.5,3.9,974.3,2.5,974.3L2.5,974.3z"/>
        <path d="M1.5,976.8c0.6,0,1,0.4,1,1v3c0,0.6-0.4,1-1,1h-3c-0.6,0-1-0.4-1-1v-3c0-0.6,0.4-1,1-1H1.5 M1.5,976.3h-3c-0.8,0-1.5,0.7-1.5,1.5v3c0,0.8,0.7,1.5,1.5,1.5h3c0.8,0,1.5-0.7,1.5-1.5v-3C3,977,2.3,976.3,1.5,976.3L1.5,976.3z"/>
	</g>
</g>
</svg>
