<?xml version="1.0" encoding="utf-8"?>
<svg version="1.1" xmlns="http://www.w3.org/2000/svg" x="0px" y="0px" viewBox="0 0 283.5 283.5" xml:space="preserve">
<g>
	<path fill="none" stroke="#000000" stroke-width="3" stroke-miterlimit="10"
          d="M166.1,266.7H63.8c-6.3,0-11.3-5.1-11.3-11.3V28.1c0-6.3,5.1-11.3,11.3-11.3h102.3c6.3,0,11.3,5.1,11.3,11.3v227.3C177.5,261.7,172.4,266.7,166.1,266.7z"/>
    <path fill="none" stroke="#000000" stroke-width="3" stroke-miterlimit="10"
          d="M225.3,266.7h-33c-3.1,0-5.7-2.5-5.7-5.7V86.9c0-3.1,2.5-5.7,5.7-5.7h33c3.1,0,5.7,2.5,5.7,5.7v174.1C231,264.2,228.5,266.7,225.3,266.7z"/>
    <g>
		<path d="M101.8,39.3c2,0,3.7,1.6,3.7,3.7v25c0,2-1.6,3.7-3.7,3.7h-25c-2,0-3.7-1.6-3.7-3.7V43c0-2,1.6-3.7,3.7-3.7H101.8M101.8,37.3h-25c-3.1,0-5.7,2.5-5.7,5.7v25c0,3.1,2.5,5.7,5.7,5.7h25c3.1,0,5.7-2.5,5.7-5.7V43C107.5,39.9,104.9,37.3,101.8,37.3L101.8,37.3z"/>
        <path d="M96.6,45.4c1.6,0,2.8,1.3,2.8,2.8v14.5c0,1.6-1.3,2.8-2.8,2.8H82.1c-1.6,0-2.8-1.3-2.8-2.8V48.2c0-1.6,1.3-2.8,2.8-2.8H96.6 M96.6,43.4H82.1c-2.7,0-4.8,2.2-4.8,4.8v14.5c0,2.7,2.2,4.8,4.8,4.8h14.5c2.7,0,4.8-2.2,4.8-4.8V48.2C101.4,45.6,99.2,43.4,96.6,43.4L96.6,43.4z"/>
	</g>
</g>
</svg>
